<mxfile host="Electron" agent="Mozilla/5.0 (Windows NT 10.0; Win64; x64) AppleWebKit/537.36 (KHTML, like Gecko) draw.io/24.7.8 Chrome/128.0.6613.36 Electron/32.0.1 Safari/537.36" version="24.7.8">
  <diagram name="Página-1" id="M6PcR55B2mUVXJbar_pZ">
    <mxGraphModel dx="1434" dy="844" grid="1" gridSize="10" guides="1" tooltips="1" connect="1" arrows="1" fold="1" page="1" pageScale="1" pageWidth="1169" pageHeight="827" math="0" shadow="0">
      <root>
        <mxCell id="0" />
        <mxCell id="1" parent="0" />
        <mxCell id="MlmD2NJ_h5Vp0ho2W-Ob-1" value="Ana Esteban Barranquero&lt;span style=&quot;white-space: pre;&quot;&gt;&#x9;&lt;/span&gt;&lt;span style=&quot;white-space: pre;&quot;&gt;&#x9;&lt;/span&gt;&lt;span style=&quot;white-space: pre;&quot;&gt;&#x9;&lt;/span&gt;&lt;span style=&quot;white-space: pre;&quot;&gt;&#x9;&lt;/span&gt;&lt;span style=&quot;white-space: pre;&quot;&gt;&#x9;&lt;/span&gt;&lt;span style=&quot;white-space: pre;&quot;&gt;&#x9;&lt;/span&gt;&lt;span style=&quot;white-space: pre;&quot;&gt;&#x9;&lt;/span&gt;&lt;span style=&quot;white-space: pre;&quot;&gt;&#x9;&lt;span style=&quot;white-space: pre;&quot;&gt;&#x9;&lt;/span&gt;&lt;span style=&quot;white-space: pre;&quot;&gt;&#x9;&lt;/span&gt;&lt;span style=&quot;white-space: pre;&quot;&gt;&#x9;&lt;/span&gt;&lt;span style=&quot;white-space: pre;&quot;&gt;&#x9;&lt;/span&gt;&lt;span style=&quot;white-space: pre;&quot;&gt;&#x9;&lt;/span&gt;&lt;span style=&quot;white-space: pre;&quot;&gt;&#x9;&lt;/span&gt;&lt;span style=&quot;white-space: pre;&quot;&gt;&#x9;&lt;/span&gt;&lt;span style=&quot;white-space: pre;&quot;&gt;&#x9;&lt;/span&gt;&lt;span style=&quot;white-space: pre;&quot;&gt;&#x9;&lt;/span&gt;&lt;span style=&quot;white-space: pre;&quot;&gt;&#x9;&lt;/span&gt;&lt;/span&gt;1º DAW" style="text;html=1;strokeColor=none;fillColor=none;align=center;verticalAlign=middle;whiteSpace=wrap;rounded=0;fontStyle=1;fontSize=13;" parent="1" vertex="1">
          <mxGeometry x="17" y="10" width="770" height="30" as="geometry" />
        </mxCell>
        <mxCell id="MlmD2NJ_h5Vp0ho2W-Ob-2" value="&lt;u style=&quot;font-size: 19px;&quot;&gt;T2.A1.Spotify&lt;br&gt;&lt;br style=&quot;&quot;&gt;&lt;/u&gt;Vamos a tratar de hacer un modelo sencillo de cómo sería la base de datos necesaria para Spotify. Diseña el diagrama entidad relación." style="text;whiteSpace=wrap;html=1;fontSize=15;fontStyle=1" parent="1" vertex="1">
          <mxGeometry x="37" y="40" width="760" height="70" as="geometry" />
        </mxCell>
        <mxCell id="MlmD2NJ_h5Vp0ho2W-Ob-5" value="Id_free" style="ellipse;whiteSpace=wrap;html=1;align=center;fontSize=12;fontStyle=4;fillColor=#fff2cc;strokeColor=#d6b656;" parent="1" vertex="1">
          <mxGeometry x="633" y="336" width="60" height="30" as="geometry" />
        </mxCell>
        <mxCell id="MlmD2NJ_h5Vp0ho2W-Ob-6" value="Email" style="ellipse;whiteSpace=wrap;html=1;align=center;fontSize=12;" parent="1" vertex="1">
          <mxGeometry x="403" y="356" width="60" height="30" as="geometry" />
        </mxCell>
        <mxCell id="MlmD2NJ_h5Vp0ho2W-Ob-7" value="Password" style="ellipse;whiteSpace=wrap;html=1;align=center;fontSize=12;" parent="1" vertex="1">
          <mxGeometry x="403" y="416" width="60" height="30" as="geometry" />
        </mxCell>
        <mxCell id="MlmD2NJ_h5Vp0ho2W-Ob-8" value="Nombre" style="ellipse;whiteSpace=wrap;html=1;align=center;fontSize=12;" parent="1" vertex="1">
          <mxGeometry x="403" y="386" width="60" height="30" as="geometry" />
        </mxCell>
        <mxCell id="MlmD2NJ_h5Vp0ho2W-Ob-9" value="Fech_nac" style="ellipse;whiteSpace=wrap;html=1;align=center;fontSize=12;" parent="1" vertex="1">
          <mxGeometry x="573" y="336" width="60" height="30" as="geometry" />
        </mxCell>
        <mxCell id="MlmD2NJ_h5Vp0ho2W-Ob-10" value="Sexo" style="ellipse;whiteSpace=wrap;html=1;align=center;fontSize=12;" parent="1" vertex="1">
          <mxGeometry x="453" y="336" width="60" height="30" as="geometry" />
        </mxCell>
        <mxCell id="MlmD2NJ_h5Vp0ho2W-Ob-11" value="País" style="ellipse;whiteSpace=wrap;html=1;align=center;fontSize=12;" parent="1" vertex="1">
          <mxGeometry x="513" y="336" width="60" height="30" as="geometry" />
        </mxCell>
        <mxCell id="MlmD2NJ_h5Vp0ho2W-Ob-12" value="Cod_post" style="ellipse;whiteSpace=wrap;html=1;align=center;fontSize=12;" parent="1" vertex="1">
          <mxGeometry x="403" y="446" width="60" height="30" as="geometry" />
        </mxCell>
        <mxCell id="MlmD2NJ_h5Vp0ho2W-Ob-16" value="" style="endArrow=none;html=1;rounded=0;fontSize=12;exitX=1;exitY=0.5;exitDx=0;exitDy=0;entryX=0;entryY=1;entryDx=0;entryDy=0;" parent="1" target="MlmD2NJ_h5Vp0ho2W-Ob-5" edge="1">
          <mxGeometry relative="1" as="geometry">
            <mxPoint x="598.0000000000036" y="413.5" as="sourcePoint" />
            <mxPoint x="893" y="426" as="targetPoint" />
          </mxGeometry>
        </mxCell>
        <mxCell id="MlmD2NJ_h5Vp0ho2W-Ob-17" value="" style="endArrow=none;html=1;rounded=0;fontSize=12;exitX=0.75;exitY=0;exitDx=0;exitDy=0;entryX=0.5;entryY=1;entryDx=0;entryDy=0;" parent="1" target="MlmD2NJ_h5Vp0ho2W-Ob-9" edge="1">
          <mxGeometry relative="1" as="geometry">
            <mxPoint x="588" y="406" as="sourcePoint" />
            <mxPoint x="893" y="426" as="targetPoint" />
          </mxGeometry>
        </mxCell>
        <mxCell id="MlmD2NJ_h5Vp0ho2W-Ob-18" value="" style="endArrow=none;html=1;rounded=0;fontSize=12;exitX=0.25;exitY=0;exitDx=0;exitDy=0;entryX=0.5;entryY=1;entryDx=0;entryDy=0;" parent="1" target="MlmD2NJ_h5Vp0ho2W-Ob-11" edge="1">
          <mxGeometry relative="1" as="geometry">
            <mxPoint x="548" y="406" as="sourcePoint" />
            <mxPoint x="893" y="426" as="targetPoint" />
          </mxGeometry>
        </mxCell>
        <mxCell id="MlmD2NJ_h5Vp0ho2W-Ob-19" value="" style="endArrow=none;html=1;rounded=0;fontSize=12;exitX=0;exitY=0;exitDx=0;exitDy=0;entryX=1;entryY=1;entryDx=0;entryDy=0;" parent="1" target="MlmD2NJ_h5Vp0ho2W-Ob-10" edge="1">
          <mxGeometry relative="1" as="geometry">
            <mxPoint x="528" y="406" as="sourcePoint" />
            <mxPoint x="893" y="426" as="targetPoint" />
          </mxGeometry>
        </mxCell>
        <mxCell id="MlmD2NJ_h5Vp0ho2W-Ob-20" value="" style="endArrow=none;html=1;rounded=0;fontSize=12;exitX=0;exitY=0.25;exitDx=0;exitDy=0;entryX=1;entryY=0.5;entryDx=0;entryDy=0;" parent="1" target="MlmD2NJ_h5Vp0ho2W-Ob-6" edge="1">
          <mxGeometry relative="1" as="geometry">
            <mxPoint x="528" y="413.5" as="sourcePoint" />
            <mxPoint x="893" y="426" as="targetPoint" />
          </mxGeometry>
        </mxCell>
        <mxCell id="MlmD2NJ_h5Vp0ho2W-Ob-21" value="" style="endArrow=none;html=1;rounded=0;fontSize=12;exitX=0;exitY=0.5;exitDx=0;exitDy=0;entryX=1;entryY=0.5;entryDx=0;entryDy=0;" parent="1" target="MlmD2NJ_h5Vp0ho2W-Ob-8" edge="1">
          <mxGeometry relative="1" as="geometry">
            <mxPoint x="528" y="421" as="sourcePoint" />
            <mxPoint x="893" y="426" as="targetPoint" />
          </mxGeometry>
        </mxCell>
        <mxCell id="MlmD2NJ_h5Vp0ho2W-Ob-22" value="" style="endArrow=none;html=1;rounded=0;fontSize=12;exitX=0;exitY=0.25;exitDx=0;exitDy=0;" parent="1" source="MlmD2NJ_h5Vp0ho2W-Ob-168" target="MlmD2NJ_h5Vp0ho2W-Ob-7" edge="1">
          <mxGeometry relative="1" as="geometry">
            <mxPoint x="512.9999999999966" y="413.5" as="sourcePoint" />
            <mxPoint x="893" y="426" as="targetPoint" />
          </mxGeometry>
        </mxCell>
        <mxCell id="MlmD2NJ_h5Vp0ho2W-Ob-23" value="" style="endArrow=none;html=1;rounded=0;fontSize=12;exitX=0;exitY=0.75;exitDx=0;exitDy=0;entryX=1;entryY=0;entryDx=0;entryDy=0;" parent="1" source="MlmD2NJ_h5Vp0ho2W-Ob-168" target="MlmD2NJ_h5Vp0ho2W-Ob-12" edge="1">
          <mxGeometry relative="1" as="geometry">
            <mxPoint x="524.6019410166286" y="425.5159118268666" as="sourcePoint" />
            <mxPoint x="893" y="426" as="targetPoint" />
          </mxGeometry>
        </mxCell>
        <mxCell id="MlmD2NJ_h5Vp0ho2W-Ob-24" value="Id_prem" style="ellipse;whiteSpace=wrap;html=1;align=center;fontSize=12;fontStyle=4;fillColor=#fff2cc;strokeColor=#d6b656;" parent="1" vertex="1">
          <mxGeometry x="518" y="476" width="60" height="30" as="geometry" />
        </mxCell>
        <mxCell id="MlmD2NJ_h5Vp0ho2W-Ob-25" value="Fech_nac" style="ellipse;whiteSpace=wrap;html=1;align=center;fontSize=12;" parent="1" vertex="1">
          <mxGeometry x="578" y="476" width="60" height="30" as="geometry" />
        </mxCell>
        <mxCell id="MlmD2NJ_h5Vp0ho2W-Ob-26" value="País" style="ellipse;whiteSpace=wrap;html=1;align=center;fontSize=12;" parent="1" vertex="1">
          <mxGeometry x="638" y="476" width="60" height="30" as="geometry" />
        </mxCell>
        <mxCell id="MlmD2NJ_h5Vp0ho2W-Ob-27" value="Sexo" style="ellipse;whiteSpace=wrap;html=1;align=center;fontSize=12;" parent="1" vertex="1">
          <mxGeometry x="496.5" y="510" width="60" height="30" as="geometry" />
        </mxCell>
        <mxCell id="MlmD2NJ_h5Vp0ho2W-Ob-28" value="Email" style="ellipse;whiteSpace=wrap;html=1;align=center;fontSize=12;" parent="1" vertex="1">
          <mxGeometry x="660.5" y="600" width="60" height="30" as="geometry" />
        </mxCell>
        <mxCell id="MlmD2NJ_h5Vp0ho2W-Ob-29" value="Nombre" style="ellipse;whiteSpace=wrap;html=1;align=center;fontSize=12;" parent="1" vertex="1">
          <mxGeometry x="495" y="580" width="60" height="30" as="geometry" />
        </mxCell>
        <mxCell id="MlmD2NJ_h5Vp0ho2W-Ob-30" value="Password" style="ellipse;whiteSpace=wrap;html=1;align=center;fontSize=12;" parent="1" vertex="1">
          <mxGeometry x="537" y="610" width="60" height="30" as="geometry" />
        </mxCell>
        <mxCell id="MlmD2NJ_h5Vp0ho2W-Ob-31" value="Cod_post" style="ellipse;whiteSpace=wrap;html=1;align=center;fontSize=12;" parent="1" vertex="1">
          <mxGeometry x="600.5" y="610" width="60" height="30" as="geometry" />
        </mxCell>
        <mxCell id="MlmD2NJ_h5Vp0ho2W-Ob-32" value="" style="endArrow=none;html=1;rounded=0;fontSize=12;entryX=0.5;entryY=1;entryDx=0;entryDy=0;exitX=0;exitY=0;exitDx=0;exitDy=0;" parent="1" target="MlmD2NJ_h5Vp0ho2W-Ob-24" edge="1">
          <mxGeometry relative="1" as="geometry">
            <mxPoint x="599.6019410166364" y="535.7006470055455" as="sourcePoint" />
            <mxPoint x="488" y="566" as="targetPoint" />
          </mxGeometry>
        </mxCell>
        <mxCell id="MlmD2NJ_h5Vp0ho2W-Ob-33" value="" style="endArrow=none;html=1;rounded=0;fontSize=12;entryX=0.5;entryY=1;entryDx=0;entryDy=0;exitX=0.25;exitY=0;exitDx=0;exitDy=0;" parent="1" target="MlmD2NJ_h5Vp0ho2W-Ob-25" edge="1">
          <mxGeometry relative="1" as="geometry">
            <mxPoint x="598" y="546" as="sourcePoint" />
            <mxPoint x="488" y="566" as="targetPoint" />
          </mxGeometry>
        </mxCell>
        <mxCell id="MlmD2NJ_h5Vp0ho2W-Ob-34" value="" style="endArrow=none;html=1;rounded=0;fontSize=12;exitX=0.5;exitY=1;exitDx=0;exitDy=0;entryX=0.5;entryY=0;entryDx=0;entryDy=0;" parent="1" source="MlmD2NJ_h5Vp0ho2W-Ob-26" edge="1">
          <mxGeometry relative="1" as="geometry">
            <mxPoint x="328" y="566" as="sourcePoint" />
            <mxPoint x="618" y="546" as="targetPoint" />
          </mxGeometry>
        </mxCell>
        <mxCell id="MlmD2NJ_h5Vp0ho2W-Ob-35" value="" style="endArrow=none;html=1;rounded=0;fontSize=12;entryX=1;entryY=0.5;entryDx=0;entryDy=0;exitX=0.75;exitY=0;exitDx=0;exitDy=0;" parent="1" target="MlmD2NJ_h5Vp0ho2W-Ob-27" edge="1">
          <mxGeometry relative="1" as="geometry">
            <mxPoint x="638" y="546" as="sourcePoint" />
            <mxPoint x="488" y="566" as="targetPoint" />
          </mxGeometry>
        </mxCell>
        <mxCell id="MlmD2NJ_h5Vp0ho2W-Ob-36" value="" style="endArrow=none;html=1;rounded=0;fontSize=12;exitX=1;exitY=0;exitDx=0;exitDy=0;" parent="1" target="MlmD2NJ_h5Vp0ho2W-Ob-28" edge="1">
          <mxGeometry relative="1" as="geometry">
            <mxPoint x="658" y="546" as="sourcePoint" />
            <mxPoint x="488" y="566" as="targetPoint" />
          </mxGeometry>
        </mxCell>
        <mxCell id="MlmD2NJ_h5Vp0ho2W-Ob-40" value="" style="endArrow=none;html=1;rounded=0;fontSize=12;entryX=1;entryY=0.5;entryDx=0;entryDy=0;exitX=0.251;exitY=0.906;exitDx=0;exitDy=0;exitPerimeter=0;" parent="1" target="MlmD2NJ_h5Vp0ho2W-Ob-29" edge="1">
          <mxGeometry relative="1" as="geometry">
            <mxPoint x="609.335" y="558.1800000000001" as="sourcePoint" />
            <mxPoint x="488" y="566" as="targetPoint" />
          </mxGeometry>
        </mxCell>
        <mxCell id="MlmD2NJ_h5Vp0ho2W-Ob-41" value="" style="endArrow=none;html=1;rounded=0;fontSize=12;entryX=1;entryY=0;entryDx=0;entryDy=0;exitX=0.361;exitY=0.994;exitDx=0;exitDy=0;exitPerimeter=0;" parent="1" target="MlmD2NJ_h5Vp0ho2W-Ob-30" edge="1">
          <mxGeometry relative="1" as="geometry">
            <mxPoint x="618.685" y="560.8200000000002" as="sourcePoint" />
            <mxPoint x="488" y="566" as="targetPoint" />
          </mxGeometry>
        </mxCell>
        <mxCell id="MlmD2NJ_h5Vp0ho2W-Ob-42" value="" style="endArrow=none;html=1;rounded=0;fontSize=12;entryX=1;entryY=0;entryDx=0;entryDy=0;" parent="1" target="MlmD2NJ_h5Vp0ho2W-Ob-31" edge="1">
          <mxGeometry relative="1" as="geometry">
            <mxPoint x="635.1274958021104" y="560.9108198068" as="sourcePoint" />
            <mxPoint x="488" y="566" as="targetPoint" />
          </mxGeometry>
        </mxCell>
        <mxCell id="MlmD2NJ_h5Vp0ho2W-Ob-43" value="Suscripción" style="whiteSpace=wrap;html=1;align=center;fontSize=16;fillColor=#ffe6cc;strokeColor=#d79b00;" parent="1" vertex="1">
          <mxGeometry x="817" y="531" width="80" height="30" as="geometry" />
        </mxCell>
        <mxCell id="MlmD2NJ_h5Vp0ho2W-Ob-137" style="edgeStyle=orthogonalEdgeStyle;rounded=0;orthogonalLoop=1;jettySize=auto;html=1;exitX=0;exitY=0.5;exitDx=0;exitDy=0;entryX=1;entryY=0.5;entryDx=0;entryDy=0;fontSize=12;" parent="1" source="MlmD2NJ_h5Vp0ho2W-Ob-44" edge="1">
          <mxGeometry relative="1" as="geometry">
            <mxPoint x="672.9999999999955" y="546" as="targetPoint" />
          </mxGeometry>
        </mxCell>
        <mxCell id="MlmD2NJ_h5Vp0ho2W-Ob-44" value="realizar" style="shape=rhombus;perimeter=rhombusPerimeter;whiteSpace=wrap;html=1;align=center;fontSize=12;" parent="1" vertex="1">
          <mxGeometry x="717" y="526" width="70" height="40" as="geometry" />
        </mxCell>
        <mxCell id="MlmD2NJ_h5Vp0ho2W-Ob-45" value="Fech_inic" style="ellipse;whiteSpace=wrap;html=1;align=center;fontSize=12;" parent="1" vertex="1">
          <mxGeometry x="917" y="520" width="60" height="30" as="geometry" />
        </mxCell>
        <mxCell id="MlmD2NJ_h5Vp0ho2W-Ob-46" value="Fech_renov" style="ellipse;whiteSpace=wrap;html=1;align=center;fontSize=12;" parent="1" vertex="1">
          <mxGeometry x="917" y="560" width="60" height="30" as="geometry" />
        </mxCell>
        <mxCell id="MlmD2NJ_h5Vp0ho2W-Ob-47" value="" style="endArrow=none;html=1;rounded=0;fontSize=12;entryX=0;entryY=0.5;entryDx=0;entryDy=0;exitX=1;exitY=0.25;exitDx=0;exitDy=0;" parent="1" source="MlmD2NJ_h5Vp0ho2W-Ob-43" target="MlmD2NJ_h5Vp0ho2W-Ob-45" edge="1">
          <mxGeometry relative="1" as="geometry">
            <mxPoint x="339" y="681" as="sourcePoint" />
            <mxPoint x="499" y="681" as="targetPoint" />
          </mxGeometry>
        </mxCell>
        <mxCell id="MlmD2NJ_h5Vp0ho2W-Ob-48" value="" style="endArrow=none;html=1;rounded=0;fontSize=12;entryX=0;entryY=0.5;entryDx=0;entryDy=0;exitX=1;exitY=0.75;exitDx=0;exitDy=0;" parent="1" source="MlmD2NJ_h5Vp0ho2W-Ob-43" target="MlmD2NJ_h5Vp0ho2W-Ob-46" edge="1">
          <mxGeometry relative="1" as="geometry">
            <mxPoint x="339" y="681" as="sourcePoint" />
            <mxPoint x="499" y="681" as="targetPoint" />
          </mxGeometry>
        </mxCell>
        <mxCell id="MlmD2NJ_h5Vp0ho2W-Ob-141" style="edgeStyle=orthogonalEdgeStyle;rounded=0;orthogonalLoop=1;jettySize=auto;html=1;exitX=0.5;exitY=0;exitDx=0;exitDy=0;entryX=0.431;entryY=0.972;entryDx=0;entryDy=0;entryPerimeter=0;fontSize=12;" parent="1" source="MlmD2NJ_h5Vp0ho2W-Ob-50" edge="1">
          <mxGeometry relative="1" as="geometry">
            <mxPoint x="855.98" y="400.1600000000001" as="targetPoint" />
          </mxGeometry>
        </mxCell>
        <mxCell id="MlmD2NJ_h5Vp0ho2W-Ob-50" value="tener" style="shape=rhombus;perimeter=rhombusPerimeter;whiteSpace=wrap;html=1;align=center;fontSize=12;" parent="1" vertex="1">
          <mxGeometry x="821.5" y="455" width="70" height="40" as="geometry" />
        </mxCell>
        <mxCell id="MlmD2NJ_h5Vp0ho2W-Ob-51" value="Id_pag" style="ellipse;whiteSpace=wrap;html=1;align=center;fontSize=12;fontStyle=4;fillColor=#fff2cc;strokeColor=#d6b656;" parent="1" vertex="1">
          <mxGeometry x="917" y="410" width="60" height="30" as="geometry" />
        </mxCell>
        <mxCell id="MlmD2NJ_h5Vp0ho2W-Ob-52" value="Fecha" style="ellipse;whiteSpace=wrap;html=1;align=center;fontSize=12;" parent="1" vertex="1">
          <mxGeometry x="917" y="380" width="60" height="30" as="geometry" />
        </mxCell>
        <mxCell id="MlmD2NJ_h5Vp0ho2W-Ob-53" value="Cantidad" style="ellipse;whiteSpace=wrap;html=1;align=center;fontSize=12;" parent="1" vertex="1">
          <mxGeometry x="917" y="349" width="60" height="30" as="geometry" />
        </mxCell>
        <mxCell id="MlmD2NJ_h5Vp0ho2W-Ob-61" value="" style="endArrow=none;html=1;rounded=0;fontSize=12;exitX=0.5;exitY=0;exitDx=0;exitDy=0;entryX=0.5;entryY=1;entryDx=0;entryDy=0;" parent="1" edge="1">
          <mxGeometry relative="1" as="geometry">
            <mxPoint x="897" y="319" as="sourcePoint" />
            <mxPoint x="927" y="280" as="targetPoint" />
          </mxGeometry>
        </mxCell>
        <mxCell id="MlmD2NJ_h5Vp0ho2W-Ob-63" value="" style="endArrow=none;html=1;rounded=0;fontSize=12;entryX=0;entryY=1;entryDx=0;entryDy=0;" parent="1" edge="1">
          <mxGeometry relative="1" as="geometry">
            <mxPoint x="921.1067158003534" y="325.07158674061" as="sourcePoint" />
            <mxPoint x="975.2758620689817" y="305.34482758619924" as="targetPoint" />
          </mxGeometry>
        </mxCell>
        <mxCell id="MlmD2NJ_h5Vp0ho2W-Ob-67" value="(1,1)" style="text;strokeColor=none;fillColor=none;spacingLeft=4;spacingRight=4;overflow=hidden;rotatable=0;points=[[0,0.5],[1,0.5]];portConstraint=eastwest;fontSize=12;" parent="1" vertex="1">
          <mxGeometry x="867" y="503.5" width="40" height="35" as="geometry" />
        </mxCell>
        <mxCell id="MlmD2NJ_h5Vp0ho2W-Ob-68" value="(1,n)" style="text;strokeColor=none;fillColor=none;spacingLeft=4;spacingRight=4;overflow=hidden;rotatable=0;points=[[0,0.5],[1,0.5]];portConstraint=eastwest;fontSize=12;" parent="1" vertex="1">
          <mxGeometry x="670.5" y="520" width="40" height="30" as="geometry" />
        </mxCell>
        <mxCell id="MlmD2NJ_h5Vp0ho2W-Ob-70" value="N:1" style="text;strokeColor=none;fillColor=none;spacingLeft=4;spacingRight=4;overflow=hidden;rotatable=0;points=[[0,0.5],[1,0.5]];portConstraint=eastwest;fontSize=12;" parent="1" vertex="1">
          <mxGeometry x="737" y="506" width="40" height="30" as="geometry" />
        </mxCell>
        <mxCell id="MlmD2NJ_h5Vp0ho2W-Ob-72" value="(1,n)" style="text;strokeColor=none;fillColor=none;spacingLeft=4;spacingRight=4;overflow=hidden;rotatable=0;points=[[0,0.5],[1,0.5]];portConstraint=eastwest;fontSize=12;" parent="1" vertex="1">
          <mxGeometry x="857" y="396" width="40" height="30" as="geometry" />
        </mxCell>
        <mxCell id="MlmD2NJ_h5Vp0ho2W-Ob-76" value="" style="endArrow=none;html=1;rounded=0;fontSize=12;entryX=0;entryY=0.5;entryDx=0;entryDy=0;exitX=1;exitY=0.5;exitDx=0;exitDy=0;" parent="1" source="MlmD2NJ_h5Vp0ho2W-Ob-44" target="MlmD2NJ_h5Vp0ho2W-Ob-43" edge="1">
          <mxGeometry relative="1" as="geometry">
            <mxPoint x="548" y="786" as="sourcePoint" />
            <mxPoint x="509" y="788.5" as="targetPoint" />
          </mxGeometry>
        </mxCell>
        <mxCell id="MlmD2NJ_h5Vp0ho2W-Ob-77" value="(1,1)" style="text;strokeColor=none;fillColor=none;spacingLeft=4;spacingRight=4;overflow=hidden;rotatable=0;points=[[0,0.5],[1,0.5]];portConstraint=eastwest;fontSize=12;" parent="1" vertex="1">
          <mxGeometry x="787" y="520" width="40" height="30" as="geometry" />
        </mxCell>
        <mxCell id="MlmD2NJ_h5Vp0ho2W-Ob-78" value="N:1" style="text;strokeColor=none;fillColor=none;spacingLeft=4;spacingRight=4;overflow=hidden;rotatable=0;points=[[0,0.5],[1,0.5]];portConstraint=eastwest;fontSize=12;" parent="1" vertex="1">
          <mxGeometry x="794" y="460" width="53" height="35" as="geometry" />
        </mxCell>
        <mxCell id="MlmD2NJ_h5Vp0ho2W-Ob-79" value="Num_tarj" style="ellipse;whiteSpace=wrap;html=1;align=center;fontSize=12;fontStyle=4;" parent="1" vertex="1">
          <mxGeometry x="937" y="190" width="60" height="30" as="geometry" />
        </mxCell>
        <mxCell id="MlmD2NJ_h5Vp0ho2W-Ob-80" value="Caducidad" style="ellipse;whiteSpace=wrap;html=1;align=center;fontSize=12;" parent="1" vertex="1">
          <mxGeometry x="877" y="200" width="60" height="30" as="geometry" />
        </mxCell>
        <mxCell id="MlmD2NJ_h5Vp0ho2W-Ob-81" value="Cod_seg" style="ellipse;whiteSpace=wrap;html=1;align=center;fontSize=12;" parent="1" vertex="1">
          <mxGeometry x="987" y="210" width="60" height="30" as="geometry" />
        </mxCell>
        <mxCell id="MlmD2NJ_h5Vp0ho2W-Ob-82" value="Nom_usu" style="ellipse;whiteSpace=wrap;html=1;align=center;fontSize=12;fontStyle=4" parent="1" vertex="1">
          <mxGeometry x="1057" y="280" width="60" height="30" as="geometry" />
        </mxCell>
        <mxCell id="MlmD2NJ_h5Vp0ho2W-Ob-83" value="" style="endArrow=none;html=1;rounded=0;fontSize=12;exitX=1;exitY=0.5;exitDx=0;exitDy=0;entryX=0;entryY=0.5;entryDx=0;entryDy=0;" parent="1" target="MlmD2NJ_h5Vp0ho2W-Ob-82" edge="1">
          <mxGeometry relative="1" as="geometry">
            <mxPoint x="1027" y="295" as="sourcePoint" />
            <mxPoint x="1342" y="156" as="targetPoint" />
          </mxGeometry>
        </mxCell>
        <mxCell id="MlmD2NJ_h5Vp0ho2W-Ob-84" style="edgeStyle=orthogonalEdgeStyle;rounded=0;orthogonalLoop=1;jettySize=auto;html=1;exitX=0.5;exitY=1;exitDx=0;exitDy=0;fontSize=12;" parent="1" edge="1">
          <mxGeometry relative="1" as="geometry">
            <mxPoint x="997" y="310" as="sourcePoint" />
            <mxPoint x="997" y="310" as="targetPoint" />
          </mxGeometry>
        </mxCell>
        <mxCell id="MlmD2NJ_h5Vp0ho2W-Ob-89" value="Usuario" style="whiteSpace=wrap;html=1;align=center;fontSize=16;fillColor=#ffe6cc;strokeColor=#d79b00;" parent="1" vertex="1">
          <mxGeometry x="208" y="531" width="80" height="30" as="geometry" />
        </mxCell>
        <mxCell id="MlmD2NJ_h5Vp0ho2W-Ob-97" style="edgeStyle=orthogonalEdgeStyle;rounded=0;orthogonalLoop=1;jettySize=auto;html=1;exitX=0.5;exitY=0;exitDx=0;exitDy=0;entryX=0.5;entryY=1;entryDx=0;entryDy=0;fontSize=12;" parent="1" source="MlmD2NJ_h5Vp0ho2W-Ob-95" target="MlmD2NJ_h5Vp0ho2W-Ob-96" edge="1">
          <mxGeometry relative="1" as="geometry">
            <mxPoint x="248" y="320" as="sourcePoint" />
          </mxGeometry>
        </mxCell>
        <mxCell id="MlmD2NJ_h5Vp0ho2W-Ob-99" style="edgeStyle=orthogonalEdgeStyle;rounded=0;orthogonalLoop=1;jettySize=auto;html=1;exitX=0.5;exitY=1;exitDx=0;exitDy=0;fontSize=12;" parent="1" source="MlmD2NJ_h5Vp0ho2W-Ob-95" target="MlmD2NJ_h5Vp0ho2W-Ob-89" edge="1">
          <mxGeometry relative="1" as="geometry" />
        </mxCell>
        <mxCell id="MlmD2NJ_h5Vp0ho2W-Ob-95" value="crear" style="shape=rhombus;perimeter=rhombusPerimeter;whiteSpace=wrap;html=1;align=center;fontSize=12;" parent="1" vertex="1">
          <mxGeometry x="213" y="356" width="70" height="40" as="geometry" />
        </mxCell>
        <mxCell id="MlmD2NJ_h5Vp0ho2W-Ob-96" value="Playlist" style="whiteSpace=wrap;html=1;align=center;fontSize=16;fillColor=#ffe6cc;strokeColor=#d79b00;" parent="1" vertex="1">
          <mxGeometry x="335" y="220" width="80" height="30" as="geometry" />
        </mxCell>
        <mxCell id="MlmD2NJ_h5Vp0ho2W-Ob-98" value="(1,n)" style="text;strokeColor=none;fillColor=none;spacingLeft=4;spacingRight=4;overflow=hidden;rotatable=0;points=[[0,0.5],[1,0.5]];portConstraint=eastwest;fontSize=12;" parent="1" vertex="1">
          <mxGeometry x="379" y="250" width="40" height="30" as="geometry" />
        </mxCell>
        <mxCell id="MlmD2NJ_h5Vp0ho2W-Ob-100" value="(1,m)" style="text;strokeColor=none;fillColor=none;spacingLeft=4;spacingRight=4;overflow=hidden;rotatable=0;points=[[0,0.5],[1,0.5]];portConstraint=eastwest;fontSize=12;" parent="1" vertex="1">
          <mxGeometry x="248" y="506" width="40" height="30" as="geometry" />
        </mxCell>
        <mxCell id="MlmD2NJ_h5Vp0ho2W-Ob-101" value="N:M" style="text;strokeColor=none;fillColor=none;spacingLeft=4;spacingRight=4;overflow=hidden;rotatable=0;points=[[0,0.5],[1,0.5]];portConstraint=eastwest;fontSize=12;" parent="1" vertex="1">
          <mxGeometry x="283" y="361" width="40" height="30" as="geometry" />
        </mxCell>
        <mxCell id="MlmD2NJ_h5Vp0ho2W-Ob-102" value="Titulo" style="ellipse;whiteSpace=wrap;html=1;align=center;fontSize=12;" parent="1" vertex="1">
          <mxGeometry x="435" y="200" width="60" height="30" as="geometry" />
        </mxCell>
        <mxCell id="MlmD2NJ_h5Vp0ho2W-Ob-103" value="Num_can" style="ellipse;whiteSpace=wrap;html=1;align=center;fontSize=12;" parent="1" vertex="1">
          <mxGeometry x="415" y="160" width="60" height="30" as="geometry" />
        </mxCell>
        <mxCell id="MlmD2NJ_h5Vp0ho2W-Ob-104" value="Id_play" style="ellipse;whiteSpace=wrap;html=1;align=center;fontSize=12;fillColor=#fff2cc;strokeColor=#d6b656;fontStyle=4" parent="1" vertex="1">
          <mxGeometry x="435" y="230" width="60" height="30" as="geometry" />
        </mxCell>
        <mxCell id="MlmD2NJ_h5Vp0ho2W-Ob-105" value="Fech_crea" style="ellipse;whiteSpace=wrap;html=1;align=center;fontSize=12;" parent="1" vertex="1">
          <mxGeometry x="355" y="160" width="60" height="30" as="geometry" />
        </mxCell>
        <mxCell id="MlmD2NJ_h5Vp0ho2W-Ob-106" value="" style="endArrow=none;html=1;rounded=0;fontSize=12;exitX=0.5;exitY=1;exitDx=0;exitDy=0;entryX=0.75;entryY=0;entryDx=0;entryDy=0;" parent="1" source="MlmD2NJ_h5Vp0ho2W-Ob-103" target="MlmD2NJ_h5Vp0ho2W-Ob-96" edge="1">
          <mxGeometry relative="1" as="geometry">
            <mxPoint x="315" y="400" as="sourcePoint" />
            <mxPoint x="475" y="400" as="targetPoint" />
          </mxGeometry>
        </mxCell>
        <mxCell id="MlmD2NJ_h5Vp0ho2W-Ob-107" value="" style="endArrow=none;html=1;rounded=0;fontSize=12;exitX=0.5;exitY=0;exitDx=0;exitDy=0;entryX=0.5;entryY=1;entryDx=0;entryDy=0;" parent="1" source="MlmD2NJ_h5Vp0ho2W-Ob-96" target="MlmD2NJ_h5Vp0ho2W-Ob-105" edge="1">
          <mxGeometry relative="1" as="geometry">
            <mxPoint x="315" y="400" as="sourcePoint" />
            <mxPoint x="475" y="400" as="targetPoint" />
          </mxGeometry>
        </mxCell>
        <mxCell id="MlmD2NJ_h5Vp0ho2W-Ob-108" value="" style="endArrow=none;html=1;rounded=0;fontSize=12;exitX=1;exitY=0.25;exitDx=0;exitDy=0;entryX=0;entryY=0.5;entryDx=0;entryDy=0;" parent="1" source="MlmD2NJ_h5Vp0ho2W-Ob-96" target="MlmD2NJ_h5Vp0ho2W-Ob-102" edge="1">
          <mxGeometry relative="1" as="geometry">
            <mxPoint x="315" y="400" as="sourcePoint" />
            <mxPoint x="475" y="400" as="targetPoint" />
          </mxGeometry>
        </mxCell>
        <mxCell id="MlmD2NJ_h5Vp0ho2W-Ob-109" value="" style="endArrow=none;html=1;rounded=0;fontSize=12;exitX=1;exitY=0.75;exitDx=0;exitDy=0;entryX=0;entryY=0.5;entryDx=0;entryDy=0;" parent="1" source="MlmD2NJ_h5Vp0ho2W-Ob-96" target="MlmD2NJ_h5Vp0ho2W-Ob-104" edge="1">
          <mxGeometry relative="1" as="geometry">
            <mxPoint x="315" y="400" as="sourcePoint" />
            <mxPoint x="475" y="400" as="targetPoint" />
          </mxGeometry>
        </mxCell>
        <mxCell id="MlmD2NJ_h5Vp0ho2W-Ob-113" value="Fech_elimi" style="ellipse;whiteSpace=wrap;html=1;align=center;fontSize=12;" parent="1" vertex="1">
          <mxGeometry x="291" y="160" width="60" height="30" as="geometry" />
        </mxCell>
        <mxCell id="MlmD2NJ_h5Vp0ho2W-Ob-114" value="" style="endArrow=none;html=1;rounded=0;fontSize=12;exitX=1;exitY=1;exitDx=0;exitDy=0;entryX=0.25;entryY=0;entryDx=0;entryDy=0;" parent="1" source="MlmD2NJ_h5Vp0ho2W-Ob-113" target="MlmD2NJ_h5Vp0ho2W-Ob-96" edge="1">
          <mxGeometry relative="1" as="geometry">
            <mxPoint x="310" y="379.5" as="sourcePoint" />
            <mxPoint x="470" y="379.5" as="targetPoint" />
          </mxGeometry>
        </mxCell>
        <mxCell id="MlmD2NJ_h5Vp0ho2W-Ob-128" style="edgeStyle=orthogonalEdgeStyle;rounded=0;orthogonalLoop=1;jettySize=auto;html=1;exitX=0.5;exitY=1;exitDx=0;exitDy=0;entryX=0;entryY=0.5;entryDx=0;entryDy=0;fontSize=12;" parent="1" source="MlmD2NJ_h5Vp0ho2W-Ob-117" target="MlmD2NJ_h5Vp0ho2W-Ob-89" edge="1">
          <mxGeometry relative="1" as="geometry" />
        </mxCell>
        <mxCell id="MlmD2NJ_h5Vp0ho2W-Ob-131" style="edgeStyle=orthogonalEdgeStyle;rounded=0;orthogonalLoop=1;jettySize=auto;html=1;exitX=0.5;exitY=0;exitDx=0;exitDy=0;entryX=0.5;entryY=1;entryDx=0;entryDy=0;fontSize=12;" parent="1" source="MlmD2NJ_h5Vp0ho2W-Ob-117" edge="1">
          <mxGeometry relative="1" as="geometry">
            <mxPoint x="131.00000000000023" y="270" as="targetPoint" />
          </mxGeometry>
        </mxCell>
        <mxCell id="MlmD2NJ_h5Vp0ho2W-Ob-117" value="compartir" style="shape=rhombus;perimeter=rhombusPerimeter;whiteSpace=wrap;html=1;align=center;fontSize=12;" parent="1" vertex="1">
          <mxGeometry x="96" y="391" width="70" height="44" as="geometry" />
        </mxCell>
        <mxCell id="MlmD2NJ_h5Vp0ho2W-Ob-121" value="" style="endArrow=none;html=1;rounded=0;fontSize=12;exitX=1;exitY=0.5;exitDx=0;exitDy=0;entryX=0;entryY=0.5;entryDx=0;entryDy=0;" parent="1" target="MlmD2NJ_h5Vp0ho2W-Ob-96" edge="1">
          <mxGeometry relative="1" as="geometry">
            <mxPoint x="273" y="225" as="sourcePoint" />
            <mxPoint x="489" y="290" as="targetPoint" />
          </mxGeometry>
        </mxCell>
        <mxCell id="MlmD2NJ_h5Vp0ho2W-Ob-122" value="" style="endArrow=none;html=1;rounded=0;fontSize=12;entryX=0.25;entryY=0;entryDx=0;entryDy=0;exitX=1;exitY=0.5;exitDx=0;exitDy=0;" parent="1" edge="1">
          <mxGeometry relative="1" as="geometry">
            <mxPoint x="173.99999999999818" y="175" as="sourcePoint" />
            <mxPoint x="225.1975" y="200" as="targetPoint" />
          </mxGeometry>
        </mxCell>
        <mxCell id="MlmD2NJ_h5Vp0ho2W-Ob-123" value="" style="endArrow=none;html=1;rounded=0;fontSize=12;entryX=1;entryY=0;entryDx=0;entryDy=0;exitX=0.106;exitY=0.986;exitDx=0;exitDy=0;exitPerimeter=0;" parent="1" edge="1" source="JWEjux1xIjiBs_evNC4c-6">
          <mxGeometry relative="1" as="geometry">
            <mxPoint x="202.4000000000001" y="247" as="sourcePoint" />
            <mxPoint x="159.3392195241786" y="244.69482926393528" as="targetPoint" />
          </mxGeometry>
        </mxCell>
        <mxCell id="MlmD2NJ_h5Vp0ho2W-Ob-125" value="" style="endArrow=none;html=1;rounded=0;fontSize=12;exitX=1;exitY=0.5;exitDx=0;exitDy=0;entryX=0;entryY=0.5;entryDx=0;entryDy=0;" parent="1" source="MlmD2NJ_h5Vp0ho2W-Ob-89" edge="1">
          <mxGeometry relative="1" as="geometry">
            <mxPoint x="416" y="400" as="sourcePoint" />
            <mxPoint x="353" y="546" as="targetPoint" />
          </mxGeometry>
        </mxCell>
        <mxCell id="MlmD2NJ_h5Vp0ho2W-Ob-126" value="" style="endArrow=none;html=1;rounded=0;fontSize=12;exitX=1;exitY=0;exitDx=0;exitDy=0;entryX=0.5;entryY=1;entryDx=0;entryDy=0;" parent="1" edge="1">
          <mxGeometry relative="1" as="geometry">
            <mxPoint x="395.85182097859183" y="535.4989288361226" as="sourcePoint" />
            <mxPoint x="555.5" y="431" as="targetPoint" />
          </mxGeometry>
        </mxCell>
        <mxCell id="MlmD2NJ_h5Vp0ho2W-Ob-127" value="" style="endArrow=none;html=1;rounded=0;fontSize=12;exitX=1;exitY=1;exitDx=0;exitDy=0;entryX=0;entryY=1;entryDx=0;entryDy=0;" parent="1" edge="1">
          <mxGeometry relative="1" as="geometry">
            <mxPoint x="395.85182097859183" y="556.5010711638777" as="sourcePoint" />
            <mxPoint x="599.6019410166364" y="556.2993529944545" as="targetPoint" />
          </mxGeometry>
        </mxCell>
        <mxCell id="MlmD2NJ_h5Vp0ho2W-Ob-129" value="(1,n)" style="text;strokeColor=none;fillColor=none;spacingLeft=4;spacingRight=4;overflow=hidden;rotatable=0;points=[[0,0.5],[1,0.5]];portConstraint=eastwest;fontSize=12;" parent="1" vertex="1">
          <mxGeometry x="174" y="520" width="40" height="30" as="geometry" />
        </mxCell>
        <mxCell id="MlmD2NJ_h5Vp0ho2W-Ob-130" value="(0,m)" style="text;strokeColor=none;fillColor=none;spacingLeft=4;spacingRight=4;overflow=hidden;rotatable=0;points=[[0,0.5],[1,0.5]];portConstraint=eastwest;fontSize=12;" parent="1" vertex="1">
          <mxGeometry x="138" y="270" width="40" height="30" as="geometry" />
        </mxCell>
        <mxCell id="MlmD2NJ_h5Vp0ho2W-Ob-132" value="N:M" style="text;strokeColor=none;fillColor=none;spacingLeft=4;spacingRight=4;overflow=hidden;rotatable=0;points=[[0,0.5],[1,0.5]];portConstraint=eastwest;fontSize=12;" parent="1" vertex="1">
          <mxGeometry x="161" y="398" width="40" height="30" as="geometry" />
        </mxCell>
        <mxCell id="MlmD2NJ_h5Vp0ho2W-Ob-133" value="Fecha" style="ellipse;whiteSpace=wrap;html=1;align=center;fontSize=12;" parent="1" vertex="1">
          <mxGeometry x="17" y="435" width="60" height="30" as="geometry" />
        </mxCell>
        <mxCell id="MlmD2NJ_h5Vp0ho2W-Ob-135" value="" style="endArrow=none;html=1;rounded=0;fontSize=12;exitX=1;exitY=1;exitDx=0;exitDy=0;entryX=0;entryY=1;entryDx=0;entryDy=0;" parent="1" source="MlmD2NJ_h5Vp0ho2W-Ob-133" target="MlmD2NJ_h5Vp0ho2W-Ob-117" edge="1">
          <mxGeometry relative="1" as="geometry">
            <mxPoint x="416" y="300" as="sourcePoint" />
            <mxPoint x="576" y="300" as="targetPoint" />
          </mxGeometry>
        </mxCell>
        <mxCell id="MlmD2NJ_h5Vp0ho2W-Ob-138" value="" style="endArrow=none;html=1;rounded=0;fontSize=12;entryX=0.5;entryY=1;entryDx=0;entryDy=0;exitX=0.5;exitY=0;exitDx=0;exitDy=0;" parent="1" source="MlmD2NJ_h5Vp0ho2W-Ob-43" target="MlmD2NJ_h5Vp0ho2W-Ob-50" edge="1">
          <mxGeometry relative="1" as="geometry">
            <mxPoint x="537" y="590" as="sourcePoint" />
            <mxPoint x="697" y="590" as="targetPoint" />
          </mxGeometry>
        </mxCell>
        <mxCell id="MlmD2NJ_h5Vp0ho2W-Ob-142" value="" style="endArrow=none;html=1;rounded=0;fontSize=12;exitX=0.75;exitY=0;exitDx=0;exitDy=0;entryX=0;entryY=1;entryDx=0;entryDy=0;" parent="1" target="MlmD2NJ_h5Vp0ho2W-Ob-233" edge="1">
          <mxGeometry relative="1" as="geometry">
            <mxPoint x="881.5000000000002" y="371" as="sourcePoint" />
            <mxPoint x="897" y="349" as="targetPoint" />
          </mxGeometry>
        </mxCell>
        <mxCell id="MlmD2NJ_h5Vp0ho2W-Ob-143" value="" style="endArrow=none;html=1;rounded=0;fontSize=12;exitX=1;exitY=0;exitDx=0;exitDy=0;entryX=0;entryY=0.5;entryDx=0;entryDy=0;" parent="1" target="MlmD2NJ_h5Vp0ho2W-Ob-53" edge="1">
          <mxGeometry relative="1" as="geometry">
            <mxPoint x="901.5000000000002" y="371" as="sourcePoint" />
            <mxPoint x="1077" y="320" as="targetPoint" />
          </mxGeometry>
        </mxCell>
        <mxCell id="MlmD2NJ_h5Vp0ho2W-Ob-144" value="" style="endArrow=none;html=1;rounded=0;fontSize=12;exitX=1;exitY=0.5;exitDx=0;exitDy=0;entryX=0;entryY=0.5;entryDx=0;entryDy=0;" parent="1" target="MlmD2NJ_h5Vp0ho2W-Ob-52" edge="1">
          <mxGeometry relative="1" as="geometry">
            <mxPoint x="901.5000000000002" y="386" as="sourcePoint" />
            <mxPoint x="1077" y="320" as="targetPoint" />
          </mxGeometry>
        </mxCell>
        <mxCell id="MlmD2NJ_h5Vp0ho2W-Ob-145" value="" style="endArrow=none;html=1;rounded=0;fontSize=12;exitX=1.075;exitY=0.139;exitDx=0;exitDy=0;exitPerimeter=0;entryX=0;entryY=0.5;entryDx=0;entryDy=0;" parent="1" source="MlmD2NJ_h5Vp0ho2W-Ob-72" target="MlmD2NJ_h5Vp0ho2W-Ob-51" edge="1">
          <mxGeometry relative="1" as="geometry">
            <mxPoint x="917" y="320" as="sourcePoint" />
            <mxPoint x="1077" y="320" as="targetPoint" />
          </mxGeometry>
        </mxCell>
        <mxCell id="MlmD2NJ_h5Vp0ho2W-Ob-146" value="" style="endArrow=none;html=1;rounded=0;fontSize=12;entryX=0.5;entryY=1;entryDx=0;entryDy=0;exitX=0;exitY=0;exitDx=0;exitDy=0;" parent="1" target="MlmD2NJ_h5Vp0ho2W-Ob-80" edge="1">
          <mxGeometry relative="1" as="geometry">
            <mxPoint x="905.2758620689979" y="254.6551724138085" as="sourcePoint" />
            <mxPoint x="947" y="320" as="targetPoint" />
          </mxGeometry>
        </mxCell>
        <mxCell id="MlmD2NJ_h5Vp0ho2W-Ob-147" value="" style="endArrow=none;html=1;rounded=0;fontSize=12;entryX=0.5;entryY=1;entryDx=0;entryDy=0;exitX=0.5;exitY=0;exitDx=0;exitDy=0;" parent="1" target="MlmD2NJ_h5Vp0ho2W-Ob-79" edge="1">
          <mxGeometry relative="1" as="geometry">
            <mxPoint x="927" y="250" as="sourcePoint" />
            <mxPoint x="917" y="240" as="targetPoint" />
          </mxGeometry>
        </mxCell>
        <mxCell id="MlmD2NJ_h5Vp0ho2W-Ob-148" value="" style="endArrow=none;html=1;rounded=0;fontSize=12;entryX=0;entryY=1;entryDx=0;entryDy=0;exitX=1;exitY=0;exitDx=0;exitDy=0;" parent="1" target="MlmD2NJ_h5Vp0ho2W-Ob-81" edge="1">
          <mxGeometry relative="1" as="geometry">
            <mxPoint x="948.7241379310021" y="254.6551724138087" as="sourcePoint" />
            <mxPoint x="927" y="250" as="targetPoint" />
          </mxGeometry>
        </mxCell>
        <mxCell id="MlmD2NJ_h5Vp0ho2W-Ob-150" style="edgeStyle=orthogonalEdgeStyle;rounded=0;orthogonalLoop=1;jettySize=auto;html=1;exitX=0.5;exitY=1;exitDx=0;exitDy=0;fontSize=12;" parent="1" source="MlmD2NJ_h5Vp0ho2W-Ob-30" target="MlmD2NJ_h5Vp0ho2W-Ob-30" edge="1">
          <mxGeometry relative="1" as="geometry" />
        </mxCell>
        <mxCell id="MlmD2NJ_h5Vp0ho2W-Ob-155" style="edgeStyle=orthogonalEdgeStyle;rounded=0;orthogonalLoop=1;jettySize=auto;html=1;exitX=0.5;exitY=1;exitDx=0;exitDy=0;entryX=0.5;entryY=0;entryDx=0;entryDy=0;fontSize=12;" parent="1" source="MlmD2NJ_h5Vp0ho2W-Ob-153" target="MlmD2NJ_h5Vp0ho2W-Ob-174" edge="1">
          <mxGeometry relative="1" as="geometry">
            <mxPoint x="248" y="670" as="targetPoint" />
          </mxGeometry>
        </mxCell>
        <mxCell id="MlmD2NJ_h5Vp0ho2W-Ob-156" style="edgeStyle=orthogonalEdgeStyle;rounded=0;orthogonalLoop=1;jettySize=auto;html=1;exitX=0.5;exitY=0;exitDx=0;exitDy=0;entryX=0.5;entryY=1;entryDx=0;entryDy=0;fontSize=12;" parent="1" source="MlmD2NJ_h5Vp0ho2W-Ob-153" target="MlmD2NJ_h5Vp0ho2W-Ob-89" edge="1">
          <mxGeometry relative="1" as="geometry" />
        </mxCell>
        <mxCell id="MlmD2NJ_h5Vp0ho2W-Ob-153" value="seguir" style="shape=rhombus;perimeter=rhombusPerimeter;whiteSpace=wrap;html=1;align=center;fontSize=12;" parent="1" vertex="1">
          <mxGeometry x="208" y="620" width="70" height="40" as="geometry" />
        </mxCell>
        <mxCell id="MlmD2NJ_h5Vp0ho2W-Ob-157" value="N:M" style="text;strokeColor=none;fillColor=none;spacingLeft=4;spacingRight=4;overflow=hidden;rotatable=0;points=[[0,0.5],[1,0.5]];portConstraint=eastwest;fontSize=12;" parent="1" vertex="1">
          <mxGeometry x="278" y="625" width="40" height="30" as="geometry" />
        </mxCell>
        <mxCell id="MlmD2NJ_h5Vp0ho2W-Ob-158" value="(0,n)" style="text;strokeColor=none;fillColor=none;spacingLeft=4;spacingRight=4;overflow=hidden;rotatable=0;points=[[0,0.5],[1,0.5]];portConstraint=eastwest;fontSize=12;" parent="1" vertex="1">
          <mxGeometry x="248" y="561" width="40" height="30" as="geometry" />
        </mxCell>
        <mxCell id="MlmD2NJ_h5Vp0ho2W-Ob-159" value="(0,m)" style="text;strokeColor=none;fillColor=none;spacingLeft=4;spacingRight=4;overflow=hidden;rotatable=0;points=[[0,0.5],[1,0.5]];portConstraint=eastwest;fontSize=12;" parent="1" vertex="1">
          <mxGeometry x="243" y="675" width="40" height="30" as="geometry" />
        </mxCell>
        <mxCell id="MlmD2NJ_h5Vp0ho2W-Ob-160" value="Nombre" style="ellipse;whiteSpace=wrap;html=1;align=center;fontSize=12;" parent="1" vertex="1">
          <mxGeometry x="113" y="670" width="60" height="30" as="geometry" />
        </mxCell>
        <mxCell id="MlmD2NJ_h5Vp0ho2W-Ob-161" value="Id_art" style="ellipse;whiteSpace=wrap;html=1;align=center;fontSize=12;fillColor=#fff2cc;strokeColor=#d6b656;" parent="1" vertex="1">
          <mxGeometry x="113" y="700" width="60" height="30" as="geometry" />
        </mxCell>
        <mxCell id="MlmD2NJ_h5Vp0ho2W-Ob-162" value="Imagen" style="ellipse;whiteSpace=wrap;html=1;align=center;fontSize=12;" parent="1" vertex="1">
          <mxGeometry x="113" y="730" width="60" height="30" as="geometry" />
        </mxCell>
        <mxCell id="MlmD2NJ_h5Vp0ho2W-Ob-163" value="" style="endArrow=none;html=1;rounded=0;fontSize=12;exitX=1;exitY=0.5;exitDx=0;exitDy=0;entryX=0;entryY=0;entryDx=0;entryDy=0;" parent="1" source="MlmD2NJ_h5Vp0ho2W-Ob-160" edge="1">
          <mxGeometry relative="1" as="geometry">
            <mxPoint x="462" y="570" as="sourcePoint" />
            <mxPoint x="206.98432439382123" y="704.7098069696631" as="targetPoint" />
          </mxGeometry>
        </mxCell>
        <mxCell id="MlmD2NJ_h5Vp0ho2W-Ob-164" value="" style="endArrow=none;html=1;rounded=0;fontSize=12;exitX=1;exitY=0.5;exitDx=0;exitDy=0;entryX=0;entryY=0.5;entryDx=0;entryDy=0;" parent="1" source="MlmD2NJ_h5Vp0ho2W-Ob-161" target="MlmD2NJ_h5Vp0ho2W-Ob-174" edge="1">
          <mxGeometry relative="1" as="geometry">
            <mxPoint x="462" y="570" as="sourcePoint" />
            <mxPoint x="193.50000000000205" y="715" as="targetPoint" />
          </mxGeometry>
        </mxCell>
        <mxCell id="MlmD2NJ_h5Vp0ho2W-Ob-165" value="" style="endArrow=none;html=1;rounded=0;fontSize=12;exitX=1;exitY=0.5;exitDx=0;exitDy=0;entryX=0;entryY=1;entryDx=0;entryDy=0;" parent="1" source="MlmD2NJ_h5Vp0ho2W-Ob-162" edge="1">
          <mxGeometry relative="1" as="geometry">
            <mxPoint x="462" y="570" as="sourcePoint" />
            <mxPoint x="206.98432439382123" y="725.2901930303369" as="targetPoint" />
          </mxGeometry>
        </mxCell>
        <mxCell id="MlmD2NJ_h5Vp0ho2W-Ob-178" style="edgeStyle=orthogonalEdgeStyle;rounded=0;orthogonalLoop=1;jettySize=auto;html=1;exitX=1;exitY=0.5;exitDx=0;exitDy=0;entryX=0;entryY=0.5;entryDx=0;entryDy=0;fontSize=12;" parent="1" source="MlmD2NJ_h5Vp0ho2W-Ob-166" edge="1">
          <mxGeometry relative="1" as="geometry">
            <mxPoint x="517" y="714.9999999999998" as="targetPoint" />
          </mxGeometry>
        </mxCell>
        <mxCell id="MlmD2NJ_h5Vp0ho2W-Ob-166" value="publicar" style="shape=rhombus;perimeter=rhombusPerimeter;whiteSpace=wrap;html=1;align=center;fontSize=12;" parent="1" vertex="1">
          <mxGeometry x="364" y="695" width="70" height="40" as="geometry" />
        </mxCell>
        <mxCell id="MlmD2NJ_h5Vp0ho2W-Ob-168" value="Free" style="whiteSpace=wrap;html=1;align=center;fontSize=16;fillColor=#ffe6cc;strokeColor=#d79b00;" parent="1" vertex="1">
          <mxGeometry x="527" y="405" width="80" height="30" as="geometry" />
        </mxCell>
        <mxCell id="MlmD2NJ_h5Vp0ho2W-Ob-174" value="Artista" style="whiteSpace=wrap;html=1;align=center;fontSize=16;fillColor=#ffe6cc;strokeColor=#d79b00;" parent="1" vertex="1">
          <mxGeometry x="203" y="700" width="80" height="30" as="geometry" />
        </mxCell>
        <mxCell id="MlmD2NJ_h5Vp0ho2W-Ob-175" value="(1,1)" style="text;strokeColor=none;fillColor=none;spacingLeft=4;spacingRight=4;overflow=hidden;rotatable=0;points=[[0,0.5],[1,0.5]];portConstraint=eastwest;fontSize=12;" parent="1" vertex="1">
          <mxGeometry x="283" y="690" width="40" height="25" as="geometry" />
        </mxCell>
        <mxCell id="MlmD2NJ_h5Vp0ho2W-Ob-176" value="(1,n)" style="text;strokeColor=none;fillColor=none;spacingLeft=4;spacingRight=4;overflow=hidden;rotatable=0;points=[[0,0.5],[1,0.5]];portConstraint=eastwest;fontSize=12;" parent="1" vertex="1">
          <mxGeometry x="478" y="685" width="40" height="30" as="geometry" />
        </mxCell>
        <mxCell id="MlmD2NJ_h5Vp0ho2W-Ob-179" value="" style="endArrow=none;html=1;rounded=0;fontSize=12;exitX=1;exitY=0.5;exitDx=0;exitDy=0;entryX=0;entryY=0.5;entryDx=0;entryDy=0;" parent="1" source="MlmD2NJ_h5Vp0ho2W-Ob-174" target="MlmD2NJ_h5Vp0ho2W-Ob-166" edge="1">
          <mxGeometry relative="1" as="geometry">
            <mxPoint x="298" y="556" as="sourcePoint" />
            <mxPoint x="363" y="556" as="targetPoint" />
          </mxGeometry>
        </mxCell>
        <mxCell id="MlmD2NJ_h5Vp0ho2W-Ob-187" style="edgeStyle=orthogonalEdgeStyle;rounded=0;orthogonalLoop=1;jettySize=auto;html=1;exitX=1;exitY=0.5;exitDx=0;exitDy=0;entryX=0;entryY=0.5;entryDx=0;entryDy=0;fontSize=12;" parent="1" source="MlmD2NJ_h5Vp0ho2W-Ob-181" edge="1">
          <mxGeometry relative="1" as="geometry">
            <mxPoint x="787" y="714.9999999999998" as="targetPoint" />
          </mxGeometry>
        </mxCell>
        <mxCell id="MlmD2NJ_h5Vp0ho2W-Ob-181" value="pertenecer" style="shape=rhombus;perimeter=rhombusPerimeter;whiteSpace=wrap;html=1;align=center;fontSize=12;" parent="1" vertex="1">
          <mxGeometry x="650.5" y="695" width="70" height="40" as="geometry" />
        </mxCell>
        <mxCell id="MlmD2NJ_h5Vp0ho2W-Ob-185" value="(1,1)" style="text;strokeColor=none;fillColor=none;spacingLeft=4;spacingRight=4;overflow=hidden;rotatable=0;points=[[0,0.5],[1,0.5]];portConstraint=eastwest;fontSize=12;" parent="1" vertex="1">
          <mxGeometry x="593" y="690" width="40" height="25" as="geometry" />
        </mxCell>
        <mxCell id="MlmD2NJ_h5Vp0ho2W-Ob-186" value="(1,n)" style="text;strokeColor=none;fillColor=none;spacingLeft=4;spacingRight=4;overflow=hidden;rotatable=0;points=[[0,0.5],[1,0.5]];portConstraint=eastwest;fontSize=12;" parent="1" vertex="1">
          <mxGeometry x="754" y="685" width="40" height="30" as="geometry" />
        </mxCell>
        <mxCell id="MlmD2NJ_h5Vp0ho2W-Ob-188" value="" style="endArrow=none;html=1;rounded=0;fontSize=12;exitX=1;exitY=0.5;exitDx=0;exitDy=0;entryX=0;entryY=0.5;entryDx=0;entryDy=0;" parent="1" target="MlmD2NJ_h5Vp0ho2W-Ob-181" edge="1">
          <mxGeometry relative="1" as="geometry">
            <mxPoint x="597" y="714.9999999999998" as="sourcePoint" />
            <mxPoint x="635.9999999999998" y="780" as="targetPoint" />
          </mxGeometry>
        </mxCell>
        <mxCell id="MlmD2NJ_h5Vp0ho2W-Ob-189" value="N:1" style="text;strokeColor=none;fillColor=none;spacingLeft=4;spacingRight=4;overflow=hidden;rotatable=0;points=[[0,0.5],[1,0.5]];portConstraint=eastwest;fontSize=12;" parent="1" vertex="1">
          <mxGeometry x="382" y="672.5" width="53" height="35" as="geometry" />
        </mxCell>
        <mxCell id="MlmD2NJ_h5Vp0ho2W-Ob-190" value="N:1" style="text;strokeColor=none;fillColor=none;spacingLeft=4;spacingRight=4;overflow=hidden;rotatable=0;points=[[0,0.5],[1,0.5]];portConstraint=eastwest;fontSize=12;" parent="1" vertex="1">
          <mxGeometry x="670.5" y="675" width="53" height="35" as="geometry" />
        </mxCell>
        <mxCell id="MlmD2NJ_h5Vp0ho2W-Ob-191" value="Id_canc" style="ellipse;whiteSpace=wrap;html=1;align=center;fontSize=12;fillColor=#fff2cc;strokeColor=#d6b656;" parent="1" vertex="1">
          <mxGeometry x="867" y="655" width="60" height="30" as="geometry" />
        </mxCell>
        <mxCell id="MlmD2NJ_h5Vp0ho2W-Ob-192" value="Titulo" style="ellipse;whiteSpace=wrap;html=1;align=center;fontSize=12;" parent="1" vertex="1">
          <mxGeometry x="891.5" y="750" width="60" height="30" as="geometry" />
        </mxCell>
        <mxCell id="MlmD2NJ_h5Vp0ho2W-Ob-193" value="Duración" style="ellipse;whiteSpace=wrap;html=1;align=center;fontSize=12;" parent="1" vertex="1">
          <mxGeometry x="917" y="715" width="60" height="30" as="geometry" />
        </mxCell>
        <mxCell id="MlmD2NJ_h5Vp0ho2W-Ob-194" value="Reproducciones" style="ellipse;whiteSpace=wrap;html=1;align=center;fontSize=12;" parent="1" vertex="1">
          <mxGeometry x="917" y="677.5" width="60" height="30" as="geometry" />
        </mxCell>
        <mxCell id="MlmD2NJ_h5Vp0ho2W-Ob-196" value="" style="endArrow=none;html=1;rounded=0;fontSize=12;entryX=1;entryY=0;entryDx=0;entryDy=0;exitX=0;exitY=1;exitDx=0;exitDy=0;" parent="1" source="MlmD2NJ_h5Vp0ho2W-Ob-191" edge="1">
          <mxGeometry relative="1" as="geometry">
            <mxPoint x="540" y="480" as="sourcePoint" />
            <mxPoint x="867" y="699.9999999999998" as="targetPoint" />
          </mxGeometry>
        </mxCell>
        <mxCell id="MlmD2NJ_h5Vp0ho2W-Ob-197" value="" style="endArrow=none;html=1;rounded=0;fontSize=12;entryX=1;entryY=0.25;entryDx=0;entryDy=0;exitX=0;exitY=0.5;exitDx=0;exitDy=0;" parent="1" source="MlmD2NJ_h5Vp0ho2W-Ob-194" edge="1">
          <mxGeometry relative="1" as="geometry">
            <mxPoint x="540" y="480" as="sourcePoint" />
            <mxPoint x="867" y="707.4999999999998" as="targetPoint" />
          </mxGeometry>
        </mxCell>
        <mxCell id="MlmD2NJ_h5Vp0ho2W-Ob-198" value="" style="endArrow=none;html=1;rounded=0;fontSize=12;entryX=1;entryY=0.5;entryDx=0;entryDy=0;" parent="1" source="MlmD2NJ_h5Vp0ho2W-Ob-193" edge="1">
          <mxGeometry relative="1" as="geometry">
            <mxPoint x="540" y="480" as="sourcePoint" />
            <mxPoint x="867" y="714.9999999999998" as="targetPoint" />
          </mxGeometry>
        </mxCell>
        <mxCell id="MlmD2NJ_h5Vp0ho2W-Ob-199" value="" style="endArrow=none;html=1;rounded=0;fontSize=12;entryX=1;entryY=1;entryDx=0;entryDy=0;exitX=0;exitY=0;exitDx=0;exitDy=0;" parent="1" source="MlmD2NJ_h5Vp0ho2W-Ob-192" edge="1">
          <mxGeometry relative="1" as="geometry">
            <mxPoint x="540" y="480" as="sourcePoint" />
            <mxPoint x="867" y="729.9999999999998" as="targetPoint" />
          </mxGeometry>
        </mxCell>
        <mxCell id="MlmD2NJ_h5Vp0ho2W-Ob-200" value="Id_alb" style="ellipse;whiteSpace=wrap;html=1;align=center;fontSize=12;fillColor=#fff2cc;strokeColor=#d6b656;" parent="1" vertex="1">
          <mxGeometry x="493" y="760" width="60" height="30" as="geometry" />
        </mxCell>
        <mxCell id="MlmD2NJ_h5Vp0ho2W-Ob-201" value="Titulo" style="ellipse;whiteSpace=wrap;html=1;align=center;fontSize=12;" parent="1" vertex="1">
          <mxGeometry x="556.5" y="760" width="60" height="30" as="geometry" />
        </mxCell>
        <mxCell id="MlmD2NJ_h5Vp0ho2W-Ob-202" value="Año_pub" style="ellipse;whiteSpace=wrap;html=1;align=center;fontSize=12;" parent="1" vertex="1">
          <mxGeometry x="430" y="760" width="60" height="30" as="geometry" />
        </mxCell>
        <mxCell id="MlmD2NJ_h5Vp0ho2W-Ob-203" value="Img" style="ellipse;whiteSpace=wrap;html=1;align=center;fontSize=12;" parent="1" vertex="1">
          <mxGeometry x="620" y="760" width="60" height="30" as="geometry" />
        </mxCell>
        <mxCell id="MlmD2NJ_h5Vp0ho2W-Ob-204" value="" style="endArrow=none;html=1;rounded=0;fontSize=12;exitX=1;exitY=0;exitDx=0;exitDy=0;entryX=0;entryY=1;entryDx=0;entryDy=0;" parent="1" source="MlmD2NJ_h5Vp0ho2W-Ob-202" edge="1">
          <mxGeometry relative="1" as="geometry">
            <mxPoint x="540" y="480" as="sourcePoint" />
            <mxPoint x="517" y="729.9999999999998" as="targetPoint" />
          </mxGeometry>
        </mxCell>
        <mxCell id="MlmD2NJ_h5Vp0ho2W-Ob-205" value="" style="endArrow=none;html=1;rounded=0;fontSize=12;exitX=0.69;exitY=-0.029;exitDx=0;exitDy=0;exitPerimeter=0;entryX=0.25;entryY=1;entryDx=0;entryDy=0;" parent="1" source="MlmD2NJ_h5Vp0ho2W-Ob-200" edge="1">
          <mxGeometry relative="1" as="geometry">
            <mxPoint x="540" y="480" as="sourcePoint" />
            <mxPoint x="537" y="729.9999999999998" as="targetPoint" />
          </mxGeometry>
        </mxCell>
        <mxCell id="MlmD2NJ_h5Vp0ho2W-Ob-206" value="" style="endArrow=none;html=1;rounded=0;fontSize=12;exitX=0.5;exitY=0;exitDx=0;exitDy=0;entryX=0.75;entryY=1;entryDx=0;entryDy=0;" parent="1" source="MlmD2NJ_h5Vp0ho2W-Ob-201" edge="1">
          <mxGeometry relative="1" as="geometry">
            <mxPoint x="540" y="480" as="sourcePoint" />
            <mxPoint x="577" y="729.9999999999998" as="targetPoint" />
          </mxGeometry>
        </mxCell>
        <mxCell id="MlmD2NJ_h5Vp0ho2W-Ob-207" value="" style="endArrow=none;html=1;rounded=0;fontSize=12;exitX=0.5;exitY=0;exitDx=0;exitDy=0;entryX=1;entryY=1;entryDx=0;entryDy=0;" parent="1" source="MlmD2NJ_h5Vp0ho2W-Ob-203" edge="1">
          <mxGeometry relative="1" as="geometry">
            <mxPoint x="540" y="480" as="sourcePoint" />
            <mxPoint x="597" y="729.9999999999998" as="targetPoint" />
          </mxGeometry>
        </mxCell>
        <mxCell id="MlmD2NJ_h5Vp0ho2W-Ob-209" value="" style="endArrow=none;html=1;rounded=0;fontSize=12;exitX=0.5;exitY=0;exitDx=0;exitDy=0;entryX=0.5;entryY=1;entryDx=0;entryDy=0;" parent="1" target="MlmD2NJ_h5Vp0ho2W-Ob-174" edge="1">
          <mxGeometry relative="1" as="geometry">
            <mxPoint x="243" y="749.9999999999998" as="sourcePoint" />
            <mxPoint x="700" y="480" as="targetPoint" />
          </mxGeometry>
        </mxCell>
        <mxCell id="MlmD2NJ_h5Vp0ho2W-Ob-212" style="edgeStyle=orthogonalEdgeStyle;rounded=0;orthogonalLoop=1;jettySize=auto;html=1;exitX=1;exitY=1;exitDx=0;exitDy=0;entryX=0.25;entryY=0;entryDx=0;entryDy=0;fontSize=12;" parent="1" source="MlmD2NJ_h5Vp0ho2W-Ob-211" edge="1">
          <mxGeometry relative="1" as="geometry">
            <mxPoint x="537" y="699.9999999999998" as="targetPoint" />
          </mxGeometry>
        </mxCell>
        <mxCell id="MlmD2NJ_h5Vp0ho2W-Ob-217" style="edgeStyle=orthogonalEdgeStyle;rounded=0;orthogonalLoop=1;jettySize=auto;html=1;exitX=0;exitY=0;exitDx=0;exitDy=0;entryX=1;entryY=0.75;entryDx=0;entryDy=0;fontSize=12;" parent="1" source="MlmD2NJ_h5Vp0ho2W-Ob-211" target="MlmD2NJ_h5Vp0ho2W-Ob-89" edge="1">
          <mxGeometry relative="1" as="geometry" />
        </mxCell>
        <mxCell id="MlmD2NJ_h5Vp0ho2W-Ob-211" value="gustar" style="shape=rhombus;perimeter=rhombusPerimeter;whiteSpace=wrap;html=1;align=center;fontSize=12;" parent="1" vertex="1">
          <mxGeometry x="349" y="620" width="70" height="40" as="geometry" />
        </mxCell>
        <mxCell id="MlmD2NJ_h5Vp0ho2W-Ob-213" value="" style="endArrow=none;html=1;rounded=0;fontSize=12;" parent="1" edge="1">
          <mxGeometry relative="1" as="geometry">
            <mxPoint x="530" y="650" as="sourcePoint" />
            <mxPoint x="830" y="650" as="targetPoint" />
          </mxGeometry>
        </mxCell>
        <mxCell id="MlmD2NJ_h5Vp0ho2W-Ob-214" value="" style="endArrow=classic;html=1;rounded=0;fontSize=12;entryX=0.5;entryY=0;entryDx=0;entryDy=0;" parent="1" edge="1">
          <mxGeometry width="50" height="50" relative="1" as="geometry">
            <mxPoint x="827" y="650" as="sourcePoint" />
            <mxPoint x="827" y="699.9999999999998" as="targetPoint" />
          </mxGeometry>
        </mxCell>
        <mxCell id="MlmD2NJ_h5Vp0ho2W-Ob-218" value="(1,n)" style="text;strokeColor=none;fillColor=none;spacingLeft=4;spacingRight=4;overflow=hidden;rotatable=0;points=[[0,0.5],[1,0.5]];portConstraint=eastwest;fontSize=12;" parent="1" vertex="1">
          <mxGeometry x="827" y="675" width="40" height="30" as="geometry" />
        </mxCell>
        <mxCell id="MlmD2NJ_h5Vp0ho2W-Ob-219" value="(1,n)" style="text;strokeColor=none;fillColor=none;spacingLeft=4;spacingRight=4;overflow=hidden;rotatable=0;points=[[0,0.5],[1,0.5]];portConstraint=eastwest;fontSize=12;" parent="1" vertex="1">
          <mxGeometry x="538" y="677.5" width="40" height="30" as="geometry" />
        </mxCell>
        <mxCell id="MlmD2NJ_h5Vp0ho2W-Ob-220" value="(1,m)" style="text;strokeColor=none;fillColor=none;spacingLeft=4;spacingRight=4;overflow=hidden;rotatable=0;points=[[0,0.5],[1,0.5]];portConstraint=eastwest;fontSize=12;" parent="1" vertex="1">
          <mxGeometry x="283" y="550" width="40" height="30" as="geometry" />
        </mxCell>
        <mxCell id="MlmD2NJ_h5Vp0ho2W-Ob-221" value="N:M" style="text;strokeColor=none;fillColor=none;spacingLeft=4;spacingRight=4;overflow=hidden;rotatable=0;points=[[0,0.5],[1,0.5]];portConstraint=eastwest;fontSize=12;" parent="1" vertex="1">
          <mxGeometry x="365" y="595" width="40" height="30" as="geometry" />
        </mxCell>
        <mxCell id="MlmD2NJ_h5Vp0ho2W-Ob-222" value="ÁLBUM" style="shape=ext;margin=3;double=1;whiteSpace=wrap;html=1;align=center;fontSize=12;fillColor=#ffe6cc;strokeColor=#d79b00;" parent="1" vertex="1">
          <mxGeometry x="507" y="700" width="90" height="40" as="geometry" />
        </mxCell>
        <mxCell id="MlmD2NJ_h5Vp0ho2W-Ob-223" value="CANCIÓN" style="shape=ext;margin=3;double=1;whiteSpace=wrap;html=1;align=center;fontSize=12;fillColor=#ffe6cc;strokeColor=#d79b00;" parent="1" vertex="1">
          <mxGeometry x="787" y="700" width="90" height="40" as="geometry" />
        </mxCell>
        <mxCell id="MlmD2NJ_h5Vp0ho2W-Ob-225" value="PREMIUM" style="shape=ext;margin=3;double=1;whiteSpace=wrap;html=1;align=center;fontSize=12;fillColor=#ffe6cc;strokeColor=#d79b00;" parent="1" vertex="1">
          <mxGeometry x="580.5" y="531" width="90" height="40" as="geometry" />
        </mxCell>
        <mxCell id="MlmD2NJ_h5Vp0ho2W-Ob-226" value="PAGO" style="shape=ext;margin=3;double=1;whiteSpace=wrap;html=1;align=center;fontSize=12;fillColor=#ffe6cc;strokeColor=#d79b00;" parent="1" vertex="1">
          <mxGeometry x="811.5" y="361" width="90" height="40" as="geometry" />
        </mxCell>
        <mxCell id="MlmD2NJ_h5Vp0ho2W-Ob-229" style="edgeStyle=orthogonalEdgeStyle;rounded=0;orthogonalLoop=1;jettySize=auto;html=1;exitX=1;exitY=0.5;exitDx=0;exitDy=0;entryX=1;entryY=0.75;entryDx=0;entryDy=0;fontSize=12;" parent="1" source="MlmD2NJ_h5Vp0ho2W-Ob-227" target="MlmD2NJ_h5Vp0ho2W-Ob-174" edge="1">
          <mxGeometry relative="1" as="geometry" />
        </mxCell>
        <mxCell id="MlmD2NJ_h5Vp0ho2W-Ob-227" value="relación" style="shape=rhombus;perimeter=rhombusPerimeter;whiteSpace=wrap;html=1;align=center;fontSize=12;" parent="1" vertex="1">
          <mxGeometry x="208" y="750" width="70" height="40" as="geometry" />
        </mxCell>
        <mxCell id="MlmD2NJ_h5Vp0ho2W-Ob-230" value="1:N" style="text;strokeColor=none;fillColor=none;spacingLeft=4;spacingRight=4;overflow=hidden;rotatable=0;points=[[0,0.5],[1,0.5]];portConstraint=eastwest;fontSize=12;" parent="1" vertex="1">
          <mxGeometry x="223" y="790" width="40" height="30" as="geometry" />
        </mxCell>
        <mxCell id="MlmD2NJ_h5Vp0ho2W-Ob-231" value="tipo" style="ellipse;shape=doubleEllipse;margin=3;whiteSpace=wrap;html=1;align=center;fontSize=12;" parent="1" vertex="1">
          <mxGeometry x="213" y="210" width="70" height="30" as="geometry" />
        </mxCell>
        <mxCell id="MlmD2NJ_h5Vp0ho2W-Ob-233" value="Form_pag" style="ellipse;shape=doubleEllipse;margin=3;whiteSpace=wrap;html=1;align=center;fontSize=12;" parent="1" vertex="1">
          <mxGeometry x="877" y="310" width="70" height="30" as="geometry" />
        </mxCell>
        <mxCell id="MlmD2NJ_h5Vp0ho2W-Ob-234" value="Crédito" style="ellipse;shape=doubleEllipse;margin=3;whiteSpace=wrap;html=1;align=center;fontSize=12;" parent="1" vertex="1">
          <mxGeometry x="897" y="250" width="70" height="30" as="geometry" />
        </mxCell>
        <mxCell id="MlmD2NJ_h5Vp0ho2W-Ob-235" value="PayPal" style="ellipse;shape=doubleEllipse;margin=3;whiteSpace=wrap;html=1;align=center;fontSize=12;" parent="1" vertex="1">
          <mxGeometry x="967" y="280" width="70" height="30" as="geometry" />
        </mxCell>
        <mxCell id="MlmD2NJ_h5Vp0ho2W-Ob-236" value="" style="line;strokeWidth=1;rotatable=0;dashed=0;labelPosition=right;align=left;verticalAlign=middle;spacingTop=0;spacingLeft=6;points=[];portConstraint=eastwest;fontSize=12;" parent="1" vertex="1">
          <mxGeometry x="382" y="700" width="31" height="10" as="geometry" />
        </mxCell>
        <mxCell id="MlmD2NJ_h5Vp0ho2W-Ob-237" value="I" style="text;strokeColor=none;fillColor=none;spacingLeft=4;spacingRight=4;overflow=hidden;rotatable=0;points=[[0,0.5],[1,0.5]];portConstraint=eastwest;fontSize=12;" parent="1" vertex="1">
          <mxGeometry x="391.5" y="687.5" width="21" height="30" as="geometry" />
        </mxCell>
        <mxCell id="MlmD2NJ_h5Vp0ho2W-Ob-238" value="I" style="text;strokeColor=none;fillColor=none;spacingLeft=4;spacingRight=4;overflow=hidden;rotatable=0;points=[[0,0.5],[1,0.5]];portConstraint=eastwest;fontSize=12;" parent="1" vertex="1">
          <mxGeometry x="847" y="446" width="21" height="30" as="geometry" />
        </mxCell>
        <mxCell id="MlmD2NJ_h5Vp0ho2W-Ob-239" value="" style="line;strokeWidth=1;rotatable=0;dashed=0;labelPosition=right;align=left;verticalAlign=middle;spacingTop=0;spacingLeft=6;points=[];portConstraint=eastwest;fontSize=12;" parent="1" vertex="1">
          <mxGeometry x="839.25" y="460" width="34.5" height="10" as="geometry" />
        </mxCell>
        <mxCell id="MlmD2NJ_h5Vp0ho2W-Ob-240" value="" style="line;strokeWidth=1;rotatable=0;dashed=0;labelPosition=right;align=left;verticalAlign=middle;spacingTop=0;spacingLeft=6;points=[];portConstraint=eastwest;fontSize=12;" parent="1" vertex="1">
          <mxGeometry x="734.75" y="530" width="34.5" height="10" as="geometry" />
        </mxCell>
        <mxCell id="MlmD2NJ_h5Vp0ho2W-Ob-241" value="I" style="text;strokeColor=none;fillColor=none;spacingLeft=4;spacingRight=4;overflow=hidden;rotatable=0;points=[[0,0.5],[1,0.5]];portConstraint=eastwest;fontSize=12;" parent="1" vertex="1">
          <mxGeometry x="746.5" y="520" width="21" height="30" as="geometry" />
        </mxCell>
        <mxCell id="JWEjux1xIjiBs_evNC4c-1" value="ACTIVA" style="ellipse;whiteSpace=wrap;html=1;align=center;fontSize=12;" vertex="1" parent="1">
          <mxGeometry x="101" y="230" width="60" height="30" as="geometry" />
        </mxCell>
        <mxCell id="JWEjux1xIjiBs_evNC4c-2" value="BORRADA" style="ellipse;whiteSpace=wrap;html=1;align=center;fontSize=12;" vertex="1" parent="1">
          <mxGeometry x="118" y="160" width="60" height="30" as="geometry" />
        </mxCell>
        <mxCell id="JWEjux1xIjiBs_evNC4c-4" value="" style="shape=image;verticalLabelPosition=bottom;labelBackgroundColor=default;verticalAlign=top;aspect=fixed;imageAspect=0;image=data:image/png,iVBORw0KGgoAAAANSUhEUgAAAHAAAABeCAIAAAB0JAdaAAALLklEQVR4Ae2caVQTVxvH2/dUQSAhmSRAwiZLiCFAiEkIAoLgUlnUVmsttgpuaEFAKktBAggKlR1kEWiEQMIAxa0iLqWMRaS21dZWCnUhrR88fmi/6Dnqce3bmh4ODTDchBmcnE5OPmTu/c9z/88vz03u3JzMazCiIZ8YEngNw1hkKBjRkEAxnqAkUBIosT/0yQolK5Ss0P/Utz855f97U1795a09JSpjKXMjqFDlmaFZs2aTQDGbSiRQzFBqq5IESgIl9sqOrFCyQskKxY4AuWzCeD6RQEmg2E1PPC4WyAolK5SsUINnVpmq9/0d6UHLVtFoNP/g0CUR6z78uLjhxPcGB5yBEwk65XekHnB0dmNZWW/duk2pVB47dqyzs7O2tjZixSoLClUo8curOToDdAwYgnBAG7uvBS57i+8u6O/vf/HixZ/jHo8ePWppaYEYzI1xmQYkjPcpxALa2jviJvCOjt708OHDcST/1fDrr7+K5otXb4jDG5C+8YkFNDa9ROrj+y9ykx/cvXuXRocq4Qv65oyrnkBAVT03rNm2Fy9enJyhbk9WVlZw6BpcAekbnEBAqzouWtuwdZmhHg8ODjo6c/XNGVc9gYCWqXodHJ1QAep2joyMsG0dcAWkb3ACAVV0/TjHzPzevXu62CY/7urqEgil+uaMq55AQGFEExz2Tnp6xuQAdXu8ReJ4eQWugPQNTiygVe39ljT60NCQLrmJjhsaGrh8r9beEX1zxlVvINDaI99EbkvFw1lcRgkdYsAwPBHDf9qePHmSkLjLhmP/yaen8PAwnZgGAm06/fMcM4tPT16dztiTnftJwylbB6ely5YrFIrff/99LNnr16/nFxTM4wt8ApY0fP7DZBH0at+8K7fu+GW9TkERGwgURjQS/6Wx6SUoobVdxU3n6AwrF55AIJSAP/keIlsHJxs2x9TU1M7ensfjcbluLBaLQqHYsG0dnd3cvcQo0Vzc3OkMq2LlF1Paazjx/RxzStPpn6dUAgoMB5ogr/QUB4AM4zF/gUQq7Tfo0dvbq1Kp6uvrFQpFe3v7hQsXQMJ4i0ReEiBvMckFssBQkCwANYYDbT47TKHSK+G+KUeqP36FwbK6dOnS2MmL3+v+/n4myxrwA2EuV5BaoJgyBXCB4UBhRLN8TfTqjfEggyVkHeTN4z9+/Bg/jtrIf+1Fubhyk3JrQVzJy2COvTO264RpAT2g6IZYbPWXt0Dc+wYuk8uz8AaanJLqHxIO4gdGNLLA0M27cgHFgLJpAYURjcs8IeCUqem8RIeY165dw4/p5cuXIQbr0NFvQZKvO/admTnl8KmfQMTgmukCjc0o4QtlgOPFJOeLxJJnz57hwfTJkyfuAo+4jFJAM+/vSA98E/udqukCVfXcYFrb5lYfAUxDKPErLCzCA2hOTo7ELwTQRsu5XyCmTUFDF6AeXDZdoDCi2frRfk+wNQqMaMrV52l06NatW9gyHRwcpEOM6o4BwMxjkguE0kBAsV4yDID+vTHMccwsVQMOvCE2I2BhEIZAnz17JhJLtu3OBzSgPDMEsdjgswowrFaGAVAY0cTLK5x5oPsUf60KeB6iuro6rJgWFhYJJX7gaa/dlOQbDLoSAA+LJdDW3hFXvjA2Y+orUe2ohYfP0CHGnTt3ps/05s2bNDpUrj4PmHlF61cvr0fw+iUKmwqFEc3eqk6IaQO+XfJOdGJYeMQ0gb548cLPPyBqpxyQJoxohD5BkTFp4Hp9lZgBhRHNsrc2gC9EWs79MteF19bWNh2m1dXVfC8x4JUFjGh2ZpY7OM9T9dzQFxO4fgKgkTFpbh5inoeE5ymd5yXlC334QhlfKHP39hWIFgjm+3nM9/cUB3hKArykC4XSQKFPkLdskcg32EsaONvE1JnnJfZbLPZfIvFfKg1YJl34pk/gcllgqCwozHfRy2dw+ILgCL+QFV6ShSYmpmq12jCmt2/fpkOM8He3jnU7anisW61hvrfsjTdmcfmiUcMi32CRb8j8BYt1DOt6fmlY69lv8Ur/JatS8hsmQzwB0HIVklPZkV3Znl3RllXeJi+D5WWtmaXqzFL1nhLVnuKWjOLm9CJleqHy4wNNaQca0z45nFqgSMn/NCW/Yf32NDNzyva0wt15dR/lHUrKrU3aW7Mrpzoxpyoxuyoh62CCvDJBXhkvr9iZWb5zT5m3LCg0LNwwoIuXLI3cljKR238M/8ttkZLrLpIFhekYTslvSN5fv3tfvY5hHc//GH7pOS6jtKjxrB5AJ5MCtq+JSvQUBwDuODSd/plt59Dd3a0v08bGRheeB/jkjYrPduZ5tXxxHTALg2UTVKjBsbQnqntucgXzP/gwAzDOnhIVx9bu/v374Ezv3r0LMZjg1zl5NUepNAb4SgDQ+YQy7IHCiKYS7qNBrOT99RMOOb5xScS6mJjt4EBXrFz19gex4+NM2FJ75Bumte3uvLoJezFvxAUojGj2HzpBpTHkZTCIY8XJqyxrdl9fHwjTjo4OByfX5rPDgJEdXfhrNyWBiDHR4AUURjSZpWoqjQE4MXfvq3d2cX306BE60z/++INlZQ141djYfc3NQ7x8dRQmpACD4AgURjRJe2toECu//iSIG/+Q8OSUVHSg70WuD1+7GSSaoutHnockJOI9wK9HkJggGnyB/s00t5ZKY4D84f3Q0W8hBuvKlSuTMe3q6uLYOYL8QlnR+pWto+vy1VEzTHOG7tskL4Mt6cwtSfumfIdjM0o8PLyePn06num9e/fYHFuQPa2cyg4axIpOyJ5yODwEuFeo1nS5CrGby10QHDHlj5ESv+Dc3LzxQLds2bp0ZeSUCDYn5VFpjPRC5ZRKnAQzBBRGNMqzw6FrNkFMG/Rsq9r76RBjeHh4LNPe3l4rG85fH4soFKo7BkS+wc5unqXNPSgyvLtmDqg2kz3FLQwrzqKwd6s/+3qy3Dbv2iuV+T5//lzL9MGDB45znVB+Cmz54vqGuEwKlb4mKhH82mmy0afZPtNAYUSjOHl1ReR2CyotdM2mg20T7Eu29o4IvH3KKyq0QOMTEoPefHvCPNU9N+MySq04DkKfoFdbmKP2XgFQ7djVn30dsW6bBZUmCwqTl7Wqe26OeoIRTWlzD40O/fbbbwMDAwyWVf3xK2N7YURT1d4fuS2VaW3LF/qAfFPpnI7f4SsDqk3p8KmfohOyHV345hRL3+DwHWlFlXCfdn9zfUyqn3+AK9ctMbtKK1acvJpepFy9Md6Z50Wh0heviCTg379eMdDRSqnpvLQ99YAsKAxisWfNNrFi2ztxBa+//r85ZuZcd5Gjq7slnWliasYX+qyM3CEvg2dg32jUm14viAJ0rGnlmaFy9fl9h45/+HFR8r762IxSlo1ddcfAzK/Sx7oCfE1EoDrWi5vOceyddRoJe2gEQEuUPWx7J8IS1DFmBEBLm3ts7Eig2N0moLTlS2uOo04hEPbQCCq0XIVYcYj1dzmUt9MYgKrPs2zsUHIgVJcRAK2E+5jWtoSihmLGKIBeYFpzUHIgVJcRAD3YdgFisQlFDcWMEQCt6rgIMW1QciBUlxEAre4YoDOsCEUNxYwRAK3pvESDWCg5EKrLCIDWHvnGks4kFDUUM0YA9NDRb6k0BkoOhOoyAqB1x76jWEKEooZixhiAHr9sQaWh5ECoLiMA2nDie3OKJaGooZgxBqCf/2BmTkHJgVBdRgBUcfLqHBIohlXz8n5OFhgGxDWUEVTo4VM/mZia4UoBw+BGALSxe9DEdA6GOeMaygiAKs8O280l1h0DUd4SIwCK4p6AXSTQ/95t1wlYhiiWyArFuEL/Dxaf67VI3lFhAAAAAElFTkSuQmCC;rotation=-30;" vertex="1" parent="1">
          <mxGeometry x="348.15999999999997" y="517" width="64.34" height="54" as="geometry" />
        </mxCell>
        <mxCell id="JWEjux1xIjiBs_evNC4c-5" value="tipo" style="text;html=1;align=center;verticalAlign=middle;resizable=0;points=[];autosize=1;strokeColor=none;fillColor=none;" vertex="1" parent="1">
          <mxGeometry x="335" y="500" width="40" height="30" as="geometry" />
        </mxCell>
        <mxCell id="JWEjux1xIjiBs_evNC4c-6" value="" style="shape=image;verticalLabelPosition=bottom;labelBackgroundColor=default;verticalAlign=top;aspect=fixed;imageAspect=0;image=data:image/png,iVBORw0KGgoAAAANSUhEUgAAAHAAAABeCAIAAAB0JAdaAAALLklEQVR4Ae2caVQTVxvH2/dUQSAhmSRAwiZLiCFAiEkIAoLgUlnUVmsttgpuaEFAKktBAggKlR1kEWiEQMIAxa0iLqWMRaS21dZWCnUhrR88fmi/6Dnqce3bmh4ODTDchBmcnE5OPmTu/c9z/88vz03u3JzMazCiIZ8YEngNw1hkKBjRkEAxnqAkUBIosT/0yQolK5Ss0P/Utz855f97U1795a09JSpjKXMjqFDlmaFZs2aTQDGbSiRQzFBqq5IESgIl9sqOrFCyQskKxY4AuWzCeD6RQEmg2E1PPC4WyAolK5SsUINnVpmq9/0d6UHLVtFoNP/g0CUR6z78uLjhxPcGB5yBEwk65XekHnB0dmNZWW/duk2pVB47dqyzs7O2tjZixSoLClUo8curOToDdAwYgnBAG7uvBS57i+8u6O/vf/HixZ/jHo8ePWppaYEYzI1xmQYkjPcpxALa2jviJvCOjt708OHDcST/1fDrr7+K5otXb4jDG5C+8YkFNDa9ROrj+y9ykx/cvXuXRocq4Qv65oyrnkBAVT03rNm2Fy9enJyhbk9WVlZw6BpcAekbnEBAqzouWtuwdZmhHg8ODjo6c/XNGVc9gYCWqXodHJ1QAep2joyMsG0dcAWkb3ACAVV0/TjHzPzevXu62CY/7urqEgil+uaMq55AQGFEExz2Tnp6xuQAdXu8ReJ4eQWugPQNTiygVe39ljT60NCQLrmJjhsaGrh8r9beEX1zxlVvINDaI99EbkvFw1lcRgkdYsAwPBHDf9qePHmSkLjLhmP/yaen8PAwnZgGAm06/fMcM4tPT16dztiTnftJwylbB6ely5YrFIrff/99LNnr16/nFxTM4wt8ApY0fP7DZBH0at+8K7fu+GW9TkERGwgURjQS/6Wx6SUoobVdxU3n6AwrF55AIJSAP/keIlsHJxs2x9TU1M7ensfjcbluLBaLQqHYsG0dnd3cvcQo0Vzc3OkMq2LlF1Paazjx/RxzStPpn6dUAgoMB5ogr/QUB4AM4zF/gUQq7Tfo0dvbq1Kp6uvrFQpFe3v7hQsXQMJ4i0ReEiBvMckFssBQkCwANYYDbT47TKHSK+G+KUeqP36FwbK6dOnS2MmL3+v+/n4myxrwA2EuV5BaoJgyBXCB4UBhRLN8TfTqjfEggyVkHeTN4z9+/Bg/jtrIf+1Fubhyk3JrQVzJy2COvTO264RpAT2g6IZYbPWXt0Dc+wYuk8uz8AaanJLqHxIO4gdGNLLA0M27cgHFgLJpAYURjcs8IeCUqem8RIeY165dw4/p5cuXIQbr0NFvQZKvO/admTnl8KmfQMTgmukCjc0o4QtlgOPFJOeLxJJnz57hwfTJkyfuAo+4jFJAM+/vSA98E/udqukCVfXcYFrb5lYfAUxDKPErLCzCA2hOTo7ELwTQRsu5XyCmTUFDF6AeXDZdoDCi2frRfk+wNQqMaMrV52l06NatW9gyHRwcpEOM6o4BwMxjkguE0kBAsV4yDID+vTHMccwsVQMOvCE2I2BhEIZAnz17JhJLtu3OBzSgPDMEsdjgswowrFaGAVAY0cTLK5x5oPsUf60KeB6iuro6rJgWFhYJJX7gaa/dlOQbDLoSAA+LJdDW3hFXvjA2Y+orUe2ohYfP0CHGnTt3ps/05s2bNDpUrj4PmHlF61cvr0fw+iUKmwqFEc3eqk6IaQO+XfJOdGJYeMQ0gb548cLPPyBqpxyQJoxohD5BkTFp4Hp9lZgBhRHNsrc2gC9EWs79MteF19bWNh2m1dXVfC8x4JUFjGh2ZpY7OM9T9dzQFxO4fgKgkTFpbh5inoeE5ymd5yXlC334QhlfKHP39hWIFgjm+3nM9/cUB3hKArykC4XSQKFPkLdskcg32EsaONvE1JnnJfZbLPZfIvFfKg1YJl34pk/gcllgqCwozHfRy2dw+ILgCL+QFV6ShSYmpmq12jCmt2/fpkOM8He3jnU7anisW61hvrfsjTdmcfmiUcMi32CRb8j8BYt1DOt6fmlY69lv8Ur/JatS8hsmQzwB0HIVklPZkV3Znl3RllXeJi+D5WWtmaXqzFL1nhLVnuKWjOLm9CJleqHy4wNNaQca0z45nFqgSMn/NCW/Yf32NDNzyva0wt15dR/lHUrKrU3aW7Mrpzoxpyoxuyoh62CCvDJBXhkvr9iZWb5zT5m3LCg0LNwwoIuXLI3cljKR238M/8ttkZLrLpIFhekYTslvSN5fv3tfvY5hHc//GH7pOS6jtKjxrB5AJ5MCtq+JSvQUBwDuODSd/plt59Dd3a0v08bGRheeB/jkjYrPduZ5tXxxHTALg2UTVKjBsbQnqntucgXzP/gwAzDOnhIVx9bu/v374Ezv3r0LMZjg1zl5NUepNAb4SgDQ+YQy7IHCiKYS7qNBrOT99RMOOb5xScS6mJjt4EBXrFz19gex4+NM2FJ75Bumte3uvLoJezFvxAUojGj2HzpBpTHkZTCIY8XJqyxrdl9fHwjTjo4OByfX5rPDgJEdXfhrNyWBiDHR4AUURjSZpWoqjQE4MXfvq3d2cX306BE60z/++INlZQ141djYfc3NQ7x8dRQmpACD4AgURjRJe2toECu//iSIG/+Q8OSUVHSg70WuD1+7GSSaoutHnockJOI9wK9HkJggGnyB/s00t5ZKY4D84f3Q0W8hBuvKlSuTMe3q6uLYOYL8QlnR+pWto+vy1VEzTHOG7tskL4Mt6cwtSfumfIdjM0o8PLyePn06num9e/fYHFuQPa2cyg4axIpOyJ5yODwEuFeo1nS5CrGby10QHDHlj5ESv+Dc3LzxQLds2bp0ZeSUCDYn5VFpjPRC5ZRKnAQzBBRGNMqzw6FrNkFMG/Rsq9r76RBjeHh4LNPe3l4rG85fH4soFKo7BkS+wc5unqXNPSgyvLtmDqg2kz3FLQwrzqKwd6s/+3qy3Dbv2iuV+T5//lzL9MGDB45znVB+Cmz54vqGuEwKlb4mKhH82mmy0afZPtNAYUSjOHl1ReR2CyotdM2mg20T7Eu29o4IvH3KKyq0QOMTEoPefHvCPNU9N+MySq04DkKfoFdbmKP2XgFQ7djVn30dsW6bBZUmCwqTl7Wqe26OeoIRTWlzD40O/fbbbwMDAwyWVf3xK2N7YURT1d4fuS2VaW3LF/qAfFPpnI7f4SsDqk3p8KmfohOyHV345hRL3+DwHWlFlXCfdn9zfUyqn3+AK9ctMbtKK1acvJpepFy9Md6Z50Wh0heviCTg379eMdDRSqnpvLQ99YAsKAxisWfNNrFi2ztxBa+//r85ZuZcd5Gjq7slnWliasYX+qyM3CEvg2dg32jUm14viAJ0rGnlmaFy9fl9h45/+HFR8r762IxSlo1ddcfAzK/Sx7oCfE1EoDrWi5vOceyddRoJe2gEQEuUPWx7J8IS1DFmBEBLm3ts7Eig2N0moLTlS2uOo04hEPbQCCq0XIVYcYj1dzmUt9MYgKrPs2zsUHIgVJcRAK2E+5jWtoSihmLGKIBeYFpzUHIgVJcRAD3YdgFisQlFDcWMEQCt6rgIMW1QciBUlxEAre4YoDOsCEUNxYwRAK3pvESDWCg5EKrLCIDWHvnGks4kFDUUM0YA9NDRb6k0BkoOhOoyAqB1x76jWEKEooZixhiAHr9sQaWh5ECoLiMA2nDie3OKJaGooZgxBqCf/2BmTkHJgVBdRgBUcfLqHBIohlXz8n5OFhgGxDWUEVTo4VM/mZia4UoBw+BGALSxe9DEdA6GOeMaygiAKs8O280l1h0DUd4SIwCK4p6AXSTQ/95t1wlYhiiWyArFuEL/Dxaf67VI3lFhAAAAAElFTkSuQmCC;rotation=20;" vertex="1" parent="1">
          <mxGeometry x="218.65999999999997" y="200" width="64.34" height="54" as="geometry" />
        </mxCell>
        <mxCell id="JWEjux1xIjiBs_evNC4c-7" value="tipo" style="text;html=1;align=center;verticalAlign=middle;resizable=0;points=[];autosize=1;strokeColor=none;fillColor=none;" vertex="1" parent="1">
          <mxGeometry x="230.82999999999998" y="170" width="40" height="30" as="geometry" />
        </mxCell>
        <mxCell id="JWEjux1xIjiBs_evNC4c-8" value="" style="shape=image;verticalLabelPosition=bottom;labelBackgroundColor=default;verticalAlign=top;aspect=fixed;imageAspect=0;image=data:image/png,iVBORw0KGgoAAAANSUhEUgAAAHAAAABeCAIAAAB0JAdaAAALLklEQVR4Ae2caVQTVxvH2/dUQSAhmSRAwiZLiCFAiEkIAoLgUlnUVmsttgpuaEFAKktBAggKlR1kEWiEQMIAxa0iLqWMRaS21dZWCnUhrR88fmi/6Dnqce3bmh4ODTDchBmcnE5OPmTu/c9z/88vz03u3JzMazCiIZ8YEngNw1hkKBjRkEAxnqAkUBIosT/0yQolK5Ss0P/Utz855f97U1795a09JSpjKXMjqFDlmaFZs2aTQDGbSiRQzFBqq5IESgIl9sqOrFCyQskKxY4AuWzCeD6RQEmg2E1PPC4WyAolK5SsUINnVpmq9/0d6UHLVtFoNP/g0CUR6z78uLjhxPcGB5yBEwk65XekHnB0dmNZWW/duk2pVB47dqyzs7O2tjZixSoLClUo8curOToDdAwYgnBAG7uvBS57i+8u6O/vf/HixZ/jHo8ePWppaYEYzI1xmQYkjPcpxALa2jviJvCOjt708OHDcST/1fDrr7+K5otXb4jDG5C+8YkFNDa9ROrj+y9ykx/cvXuXRocq4Qv65oyrnkBAVT03rNm2Fy9enJyhbk9WVlZw6BpcAekbnEBAqzouWtuwdZmhHg8ODjo6c/XNGVc9gYCWqXodHJ1QAep2joyMsG0dcAWkb3ACAVV0/TjHzPzevXu62CY/7urqEgil+uaMq55AQGFEExz2Tnp6xuQAdXu8ReJ4eQWugPQNTiygVe39ljT60NCQLrmJjhsaGrh8r9beEX1zxlVvINDaI99EbkvFw1lcRgkdYsAwPBHDf9qePHmSkLjLhmP/yaen8PAwnZgGAm06/fMcM4tPT16dztiTnftJwylbB6ely5YrFIrff/99LNnr16/nFxTM4wt8ApY0fP7DZBH0at+8K7fu+GW9TkERGwgURjQS/6Wx6SUoobVdxU3n6AwrF55AIJSAP/keIlsHJxs2x9TU1M7ensfjcbluLBaLQqHYsG0dnd3cvcQo0Vzc3OkMq2LlF1Paazjx/RxzStPpn6dUAgoMB5ogr/QUB4AM4zF/gUQq7Tfo0dvbq1Kp6uvrFQpFe3v7hQsXQMJ4i0ReEiBvMckFssBQkCwANYYDbT47TKHSK+G+KUeqP36FwbK6dOnS2MmL3+v+/n4myxrwA2EuV5BaoJgyBXCB4UBhRLN8TfTqjfEggyVkHeTN4z9+/Bg/jtrIf+1Fubhyk3JrQVzJy2COvTO264RpAT2g6IZYbPWXt0Dc+wYuk8uz8AaanJLqHxIO4gdGNLLA0M27cgHFgLJpAYURjcs8IeCUqem8RIeY165dw4/p5cuXIQbr0NFvQZKvO/admTnl8KmfQMTgmukCjc0o4QtlgOPFJOeLxJJnz57hwfTJkyfuAo+4jFJAM+/vSA98E/udqukCVfXcYFrb5lYfAUxDKPErLCzCA2hOTo7ELwTQRsu5XyCmTUFDF6AeXDZdoDCi2frRfk+wNQqMaMrV52l06NatW9gyHRwcpEOM6o4BwMxjkguE0kBAsV4yDID+vTHMccwsVQMOvCE2I2BhEIZAnz17JhJLtu3OBzSgPDMEsdjgswowrFaGAVAY0cTLK5x5oPsUf60KeB6iuro6rJgWFhYJJX7gaa/dlOQbDLoSAA+LJdDW3hFXvjA2Y+orUe2ohYfP0CHGnTt3ps/05s2bNDpUrj4PmHlF61cvr0fw+iUKmwqFEc3eqk6IaQO+XfJOdGJYeMQ0gb548cLPPyBqpxyQJoxohD5BkTFp4Hp9lZgBhRHNsrc2gC9EWs79MteF19bWNh2m1dXVfC8x4JUFjGh2ZpY7OM9T9dzQFxO4fgKgkTFpbh5inoeE5ymd5yXlC334QhlfKHP39hWIFgjm+3nM9/cUB3hKArykC4XSQKFPkLdskcg32EsaONvE1JnnJfZbLPZfIvFfKg1YJl34pk/gcllgqCwozHfRy2dw+ILgCL+QFV6ShSYmpmq12jCmt2/fpkOM8He3jnU7anisW61hvrfsjTdmcfmiUcMi32CRb8j8BYt1DOt6fmlY69lv8Ur/JatS8hsmQzwB0HIVklPZkV3Znl3RllXeJi+D5WWtmaXqzFL1nhLVnuKWjOLm9CJleqHy4wNNaQca0z45nFqgSMn/NCW/Yf32NDNzyva0wt15dR/lHUrKrU3aW7Mrpzoxpyoxuyoh62CCvDJBXhkvr9iZWb5zT5m3LCg0LNwwoIuXLI3cljKR238M/8ttkZLrLpIFhekYTslvSN5fv3tfvY5hHc//GH7pOS6jtKjxrB5AJ5MCtq+JSvQUBwDuODSd/plt59Dd3a0v08bGRheeB/jkjYrPduZ5tXxxHTALg2UTVKjBsbQnqntucgXzP/gwAzDOnhIVx9bu/v374Ezv3r0LMZjg1zl5NUepNAb4SgDQ+YQy7IHCiKYS7qNBrOT99RMOOb5xScS6mJjt4EBXrFz19gex4+NM2FJ75Bumte3uvLoJezFvxAUojGj2HzpBpTHkZTCIY8XJqyxrdl9fHwjTjo4OByfX5rPDgJEdXfhrNyWBiDHR4AUURjSZpWoqjQE4MXfvq3d2cX306BE60z/++INlZQ141djYfc3NQ7x8dRQmpACD4AgURjRJe2toECu//iSIG/+Q8OSUVHSg70WuD1+7GSSaoutHnockJOI9wK9HkJggGnyB/s00t5ZKY4D84f3Q0W8hBuvKlSuTMe3q6uLYOYL8QlnR+pWto+vy1VEzTHOG7tskL4Mt6cwtSfumfIdjM0o8PLyePn06num9e/fYHFuQPa2cyg4axIpOyJ5yODwEuFeo1nS5CrGby10QHDHlj5ESv+Dc3LzxQLds2bp0ZeSUCDYn5VFpjPRC5ZRKnAQzBBRGNMqzw6FrNkFMG/Rsq9r76RBjeHh4LNPe3l4rG85fH4soFKo7BkS+wc5unqXNPSgyvLtmDqg2kz3FLQwrzqKwd6s/+3qy3Dbv2iuV+T5//lzL9MGDB45znVB+Cmz54vqGuEwKlb4mKhH82mmy0afZPtNAYUSjOHl1ReR2CyotdM2mg20T7Eu29o4IvH3KKyq0QOMTEoPefHvCPNU9N+MySq04DkKfoFdbmKP2XgFQ7djVn30dsW6bBZUmCwqTl7Wqe26OeoIRTWlzD40O/fbbbwMDAwyWVf3xK2N7YURT1d4fuS2VaW3LF/qAfFPpnI7f4SsDqk3p8KmfohOyHV345hRL3+DwHWlFlXCfdn9zfUyqn3+AK9ctMbtKK1acvJpepFy9Md6Z50Wh0heviCTg379eMdDRSqnpvLQ99YAsKAxisWfNNrFi2ztxBa+//r85ZuZcd5Gjq7slnWliasYX+qyM3CEvg2dg32jUm14viAJ0rGnlmaFy9fl9h45/+HFR8r762IxSlo1ddcfAzK/Sx7oCfE1EoDrWi5vOceyddRoJe2gEQEuUPWx7J8IS1DFmBEBLm3ts7Eig2N0moLTlS2uOo04hEPbQCCq0XIVYcYj1dzmUt9MYgKrPs2zsUHIgVJcRAK2E+5jWtoSihmLGKIBeYFpzUHIgVJcRAD3YdgFisQlFDcWMEQCt6rgIMW1QciBUlxEAre4YoDOsCEUNxYwRAK3pvESDWCg5EKrLCIDWHvnGks4kFDUUM0YA9NDRb6k0BkoOhOoyAqB1x76jWEKEooZixhiAHr9sQaWh5ECoLiMA2nDie3OKJaGooZgxBqCf/2BmTkHJgVBdRgBUcfLqHBIohlXz8n5OFhgGxDWUEVTo4VM/mZia4UoBw+BGALSxe9DEdA6GOeMaygiAKs8O280l1h0DUd4SIwCK4p6AXSTQ/95t1wlYhiiWyArFuEL/Dxaf67VI3lFhAAAAAElFTkSuQmCC;rotation=0;" vertex="1" parent="1">
          <mxGeometry x="877" y="295" width="64.34" height="54" as="geometry" />
        </mxCell>
        <mxCell id="JWEjux1xIjiBs_evNC4c-9" value="&lt;span style=&quot;color: rgb(0, 0, 0); font-family: Helvetica; font-size: 12px; font-style: normal; font-variant-ligatures: normal; font-variant-caps: normal; font-weight: 400; letter-spacing: normal; orphans: 2; text-align: center; text-indent: 0px; text-transform: none; widows: 2; word-spacing: 0px; -webkit-text-stroke-width: 0px; white-space: normal; background-color: rgb(251, 251, 251); text-decoration-thickness: initial; text-decoration-style: initial; text-decoration-color: initial; display: inline !important; float: none;&quot;&gt;Form_pag&lt;/span&gt;" style="text;whiteSpace=wrap;html=1;" vertex="1" parent="1">
          <mxGeometry x="857" y="275" width="90" height="40" as="geometry" />
        </mxCell>
      </root>
    </mxGraphModel>
  </diagram>
</mxfile>
